<?xml version="1.0" encoding="us-ascii" standalone="no"?><svg xmlns="http://www.w3.org/2000/svg" xmlns:xlink="http://www.w3.org/1999/xlink" contentStyleType="text/css" height="385px" preserveAspectRatio="none" style="width:1159px;height:385px;background:#FFFFFF;" version="1.1" viewBox="0 0 1159 385" width="1159px" zoomAndPan="magnify"><defs/><g><!--cluster common--><g id="cluster_common"><path d="M8.5,6 L68.5,6 A3.75,3.75 0 0 1 71,8.5 L78,29.6094 L860.5,29.6094 A2.5,2.5 0 0 1 863,32.1094 L863,375.5 A2.5,2.5 0 0 1 860.5,378 L8.5,378 A2.5,2.5 0 0 1 6,375.5 L6,8.5 A2.5,2.5 0 0 1 8.5,6 " fill="none" style="stroke:#000000;stroke-width:1.5;"/><line style="stroke:#000000;stroke-width:1.5;" x1="6" x2="78" y1="29.6094" y2="29.6094"/><text fill="#000000" font-family="sans-serif" font-size="14" font-weight="bold" lengthAdjust="spacing" textLength="59" x="10" y="22.5332">common</text></g><!--class Brand--><g id="elem_Brand"><rect codeLine="14" fill="#D6D7F4" height="108.8281" id="Brand" rx="2.5" ry="2.5" style="stroke:#181818;stroke-width:0.5;" width="224" x="22" y="50.5"/><ellipse cx="37" cy="66.5" fill="#ADD1B2" rx="11" ry="11" style="stroke:#181818;stroke-width:1.0;"/><path d="M39.7656,62.375 Q39.9219,62.1563 40.1094,62.0469 Q40.2969,61.9375 40.5156,61.9375 Q40.8906,61.9375 41.125,62.1953 Q41.3594,62.4531 41.3594,63.0625 L41.3594,64.5156 Q41.3594,65.125 41.125,65.3906 Q40.8906,65.6563 40.5156,65.6563 Q40.1719,65.6563 39.9688,65.4531 Q39.7656,65.2656 39.6563,64.75 Q39.6094,64.3906 39.4219,64.2031 Q39.0938,63.8281 38.4844,63.6094 Q37.875,63.3906 37.25,63.3906 Q36.4844,63.3906 35.8516,63.7188 Q35.2188,64.0469 34.7266,64.7969 Q34.2344,65.5469 34.2344,66.5781 L34.2344,67.6719 Q34.2344,68.9063 35.125,69.7266 Q36.0156,70.5469 37.6094,70.5469 Q38.5469,70.5469 39.2031,70.2969 Q39.5938,70.1406 40.0156,69.7031 Q40.2813,69.4375 40.4297,69.3594 Q40.5781,69.2813 40.7813,69.2813 Q41.1094,69.2813 41.3672,69.5391 Q41.625,69.7969 41.625,70.1406 Q41.625,70.4844 41.2813,70.8906 Q40.7813,71.4688 39.9844,71.7969 Q38.9063,72.25 37.6094,72.25 Q36.0938,72.25 34.8906,71.625 Q33.9063,71.125 33.2188,70.0547 Q32.5313,68.9844 32.5313,67.7031 L32.5313,66.5469 Q32.5313,65.2188 33.1484,64.0703 Q33.7656,62.9219 34.8594,62.3047 Q35.9531,61.6875 37.1875,61.6875 Q37.9219,61.6875 38.5703,61.8516 Q39.2188,62.0156 39.7656,62.375 Z " fill="#000000"/><text fill="#000000" font-family="sans-serif" font-size="14" lengthAdjust="spacing" textLength="95" x="51" y="72.2285">common.Brand</text><rect fill="#FFFFFF" height="17.0938" style="stroke:#181818;stroke-width:1.0;stroke-dasharray:2.0,2.0;" width="91" x="158" y="47.5"/><text fill="#000000" font-family="sans-serif" font-size="12" font-style="italic" lengthAdjust="spacing" textLength="89" x="159" y="60.957">4. &#1057;&#1087;&#1088;&#1072;&#1074;&#1086;&#1095;&#1085;&#1080;&#1082;&#1080;</text><line style="stroke:#181818;stroke-width:0.5;" x1="23" x2="245" y1="82.5" y2="82.5"/><text fill="#000000" font-family="sans-serif" font-size="14" lengthAdjust="spacing" textLength="101" x="28" y="101.0332">&#1055;&#1088;&#1086;&#1080;&#1079;&#1074;&#1086;&#1076;&#1080;&#1090;&#1077;&#1083;&#1100;</text><line style="stroke:#181818;stroke-width:1.0;" x1="23" x2="245" y1="108.1094" y2="108.1094"/><rect fill="#F24D5C" height="6" style="stroke:#C82930;stroke-width:1.0;" width="6" x="30" y="119.4141"/><text fill="#000000" font-family="sans-serif" font-size="14" lengthAdjust="spacing" textLength="94" x="42" y="126.6426">id (AutoField) -</text><ellipse cx="33" cy="140.0234" fill="#84BE84" rx="3" ry="3" style="stroke:#038048;stroke-width:1.0;"/><text fill="#000000" font-family="sans-serif" font-size="14" lengthAdjust="spacing" textLength="120" x="42" y="144.252">name (CharField) -</text><line style="stroke:#181818;stroke-width:1.0;" x1="23" x2="245" y1="151.3281" y2="151.3281"/></g><!--class Algorithm--><g id="elem_Algorithm"><rect codeLine="23" fill="#D6D7F4" height="108.8281" id="Algorithm" rx="2.5" ry="2.5" style="stroke:#181818;stroke-width:0.5;" width="245" x="281.5" y="50.5"/><ellipse cx="296.5" cy="66.5" fill="#ADD1B2" rx="11" ry="11" style="stroke:#181818;stroke-width:1.0;"/><path d="M299.2656,62.375 Q299.4219,62.1563 299.6094,62.0469 Q299.7969,61.9375 300.0156,61.9375 Q300.3906,61.9375 300.625,62.1953 Q300.8594,62.4531 300.8594,63.0625 L300.8594,64.5156 Q300.8594,65.125 300.625,65.3906 Q300.3906,65.6563 300.0156,65.6563 Q299.6719,65.6563 299.4688,65.4531 Q299.2656,65.2656 299.1563,64.75 Q299.1094,64.3906 298.9219,64.2031 Q298.5938,63.8281 297.9844,63.6094 Q297.375,63.3906 296.75,63.3906 Q295.9844,63.3906 295.3516,63.7188 Q294.7188,64.0469 294.2266,64.7969 Q293.7344,65.5469 293.7344,66.5781 L293.7344,67.6719 Q293.7344,68.9063 294.625,69.7266 Q295.5156,70.5469 297.1094,70.5469 Q298.0469,70.5469 298.7031,70.2969 Q299.0938,70.1406 299.5156,69.7031 Q299.7813,69.4375 299.9297,69.3594 Q300.0781,69.2813 300.2813,69.2813 Q300.6094,69.2813 300.8672,69.5391 Q301.125,69.7969 301.125,70.1406 Q301.125,70.4844 300.7813,70.8906 Q300.2813,71.4688 299.4844,71.7969 Q298.4063,72.25 297.1094,72.25 Q295.5938,72.25 294.3906,71.625 Q293.4063,71.125 292.7188,70.0547 Q292.0313,68.9844 292.0313,67.7031 L292.0313,66.5469 Q292.0313,65.2188 292.6484,64.0703 Q293.2656,62.9219 294.3594,62.3047 Q295.4531,61.6875 296.6875,61.6875 Q297.4219,61.6875 298.0703,61.8516 Q298.7188,62.0156 299.2656,62.375 Z " fill="#000000"/><text fill="#000000" font-family="sans-serif" font-size="14" lengthAdjust="spacing" textLength="116" x="310.5" y="72.2285">common.Algorithm</text><rect fill="#FFFFFF" height="17.0938" style="stroke:#181818;stroke-width:1.0;stroke-dasharray:2.0,2.0;" width="91" x="438.5" y="47.5"/><text fill="#000000" font-family="sans-serif" font-size="12" font-style="italic" lengthAdjust="spacing" textLength="89" x="439.5" y="60.957">4. &#1057;&#1087;&#1088;&#1072;&#1074;&#1086;&#1095;&#1085;&#1080;&#1082;&#1080;</text><line style="stroke:#181818;stroke-width:0.5;" x1="282.5" x2="525.5" y1="82.5" y2="82.5"/><text fill="#000000" font-family="sans-serif" font-size="14" lengthAdjust="spacing" textLength="152" x="287.5" y="101.0332">&#1040;&#1083;&#1075;&#1086;&#1088;&#1080;&#1090;&#1084; &#1096;&#1080;&#1092;&#1088;&#1086;&#1074;&#1072;&#1085;&#1080;&#1103;</text><line style="stroke:#181818;stroke-width:1.0;" x1="282.5" x2="525.5" y1="108.1094" y2="108.1094"/><rect fill="#F24D5C" height="6" style="stroke:#C82930;stroke-width:1.0;" width="6" x="289.5" y="119.4141"/><text fill="#000000" font-family="sans-serif" font-size="14" lengthAdjust="spacing" textLength="94" x="301.5" y="126.6426">id (AutoField) -</text><ellipse cx="292.5" cy="140.0234" fill="#84BE84" rx="3" ry="3" style="stroke:#038048;stroke-width:1.0;"/><text fill="#000000" font-family="sans-serif" font-size="14" lengthAdjust="spacing" textLength="120" x="301.5" y="144.252">name (CharField) -</text><line style="stroke:#181818;stroke-width:1.0;" x1="282.5" x2="525.5" y1="151.3281" y2="151.3281"/></g><!--class CurrencyMining--><g id="elem_CurrencyMining"><rect codeLine="32" fill="#D6D7F4" height="126.4375" id="CurrencyMining" rx="2.5" ry="2.5" style="stroke:#181818;stroke-width:0.5;" width="285" x="561.5" y="42"/><ellipse cx="576.5" cy="58" fill="#ADD1B2" rx="11" ry="11" style="stroke:#181818;stroke-width:1.0;"/><path d="M579.2656,53.875 Q579.4219,53.6563 579.6094,53.5469 Q579.7969,53.4375 580.0156,53.4375 Q580.3906,53.4375 580.625,53.6953 Q580.8594,53.9531 580.8594,54.5625 L580.8594,56.0156 Q580.8594,56.625 580.625,56.8906 Q580.3906,57.1563 580.0156,57.1563 Q579.6719,57.1563 579.4688,56.9531 Q579.2656,56.7656 579.1563,56.25 Q579.1094,55.8906 578.9219,55.7031 Q578.5938,55.3281 577.9844,55.1094 Q577.375,54.8906 576.75,54.8906 Q575.9844,54.8906 575.3516,55.2188 Q574.7188,55.5469 574.2266,56.2969 Q573.7344,57.0469 573.7344,58.0781 L573.7344,59.1719 Q573.7344,60.4063 574.625,61.2266 Q575.5156,62.0469 577.1094,62.0469 Q578.0469,62.0469 578.7031,61.7969 Q579.0938,61.6406 579.5156,61.2031 Q579.7813,60.9375 579.9297,60.8594 Q580.0781,60.7813 580.2813,60.7813 Q580.6094,60.7813 580.8672,61.0391 Q581.125,61.2969 581.125,61.6406 Q581.125,61.9844 580.7813,62.3906 Q580.2813,62.9688 579.4844,63.2969 Q578.4063,63.75 577.1094,63.75 Q575.5938,63.75 574.3906,63.125 Q573.4063,62.625 572.7188,61.5547 Q572.0313,60.4844 572.0313,59.2031 L572.0313,58.0469 Q572.0313,56.7188 572.6484,55.5703 Q573.2656,54.4219 574.3594,53.8047 Q575.4531,53.1875 576.6875,53.1875 Q577.4219,53.1875 578.0703,53.3516 Q578.7188,53.5156 579.2656,53.875 Z " fill="#000000"/><text fill="#000000" font-family="sans-serif" font-size="14" lengthAdjust="spacing" textLength="156" x="590.5" y="63.7285">common.CurrencyMining</text><rect fill="#FFFFFF" height="17.0938" style="stroke:#181818;stroke-width:1.0;stroke-dasharray:2.0,2.0;" width="91" x="758.5" y="39"/><text fill="#000000" font-family="sans-serif" font-size="12" font-style="italic" lengthAdjust="spacing" textLength="89" x="759.5" y="52.457">4. &#1057;&#1087;&#1088;&#1072;&#1074;&#1086;&#1095;&#1085;&#1080;&#1082;&#1080;</text><line style="stroke:#181818;stroke-width:0.5;" x1="562.5" x2="845.5" y1="74" y2="74"/><text fill="#000000" font-family="sans-serif" font-size="14" lengthAdjust="spacing" textLength="51" x="567.5" y="92.5332">&#1042;&#1072;&#1083;&#1102;&#1090;&#1072;</text><line style="stroke:#181818;stroke-width:1.0;" x1="562.5" x2="845.5" y1="99.6094" y2="99.6094"/><rect fill="#F24D5C" height="6" style="stroke:#C82930;stroke-width:1.0;" width="6" x="569.5" y="110.9141"/><text fill="#000000" font-family="sans-serif" font-size="14" lengthAdjust="spacing" textLength="94" x="581.5" y="118.1426">id (AutoField) -</text><ellipse cx="572.5" cy="131.5234" fill="#84BE84" rx="3" ry="3" style="stroke:#038048;stroke-width:1.0;"/><text fill="#000000" font-family="sans-serif" font-size="14" lengthAdjust="spacing" textLength="138" x="581.5" y="135.752">value (DecimalField) -</text><ellipse cx="572.5" cy="149.1328" fill="#84BE84" rx="3" ry="3" style="stroke:#038048;stroke-width:1.0;"/><text fill="#000000" font-family="sans-serif" font-size="14" lengthAdjust="spacing" textLength="120" x="581.5" y="153.3613">name (CharField) -</text><line style="stroke:#181818;stroke-width:1.0;" x1="562.5" x2="845.5" y1="160.4375" y2="160.4375"/></g><!--class Hashrate--><g id="elem_Hashrate"><rect codeLine="42" fill="#D6D7F4" height="126.4375" id="Hashrate" rx="2.5" ry="2.5" style="stroke:#181818;stroke-width:0.5;" width="243" x="22.5" y="236"/><ellipse cx="37.5" cy="252" fill="#ADD1B2" rx="11" ry="11" style="stroke:#181818;stroke-width:1.0;"/><path d="M40.2656,247.875 Q40.4219,247.6563 40.6094,247.5469 Q40.7969,247.4375 41.0156,247.4375 Q41.3906,247.4375 41.625,247.6953 Q41.8594,247.9531 41.8594,248.5625 L41.8594,250.0156 Q41.8594,250.625 41.625,250.8906 Q41.3906,251.1563 41.0156,251.1563 Q40.6719,251.1563 40.4688,250.9531 Q40.2656,250.7656 40.1563,250.25 Q40.1094,249.8906 39.9219,249.7031 Q39.5938,249.3281 38.9844,249.1094 Q38.375,248.8906 37.75,248.8906 Q36.9844,248.8906 36.3516,249.2188 Q35.7188,249.5469 35.2266,250.2969 Q34.7344,251.0469 34.7344,252.0781 L34.7344,253.1719 Q34.7344,254.4063 35.625,255.2266 Q36.5156,256.0469 38.1094,256.0469 Q39.0469,256.0469 39.7031,255.7969 Q40.0938,255.6406 40.5156,255.2031 Q40.7813,254.9375 40.9297,254.8594 Q41.0781,254.7813 41.2813,254.7813 Q41.6094,254.7813 41.8672,255.0391 Q42.125,255.2969 42.125,255.6406 Q42.125,255.9844 41.7813,256.3906 Q41.2813,256.9688 40.4844,257.2969 Q39.4063,257.75 38.1094,257.75 Q36.5938,257.75 35.3906,257.125 Q34.4063,256.625 33.7188,255.5547 Q33.0313,254.4844 33.0313,253.2031 L33.0313,252.0469 Q33.0313,250.7188 33.6484,249.5703 Q34.2656,248.4219 35.3594,247.8047 Q36.4531,247.1875 37.6875,247.1875 Q38.4219,247.1875 39.0703,247.3516 Q39.7188,247.5156 40.2656,247.875 Z " fill="#000000"/><text fill="#000000" font-family="sans-serif" font-size="14" lengthAdjust="spacing" textLength="114" x="51.5" y="257.7285">common.Hashrate</text><rect fill="#FFFFFF" height="17.0938" style="stroke:#181818;stroke-width:1.0;stroke-dasharray:2.0,2.0;" width="91" x="177.5" y="233"/><text fill="#000000" font-family="sans-serif" font-size="12" font-style="italic" lengthAdjust="spacing" textLength="89" x="178.5" y="246.457">4. &#1057;&#1087;&#1088;&#1072;&#1074;&#1086;&#1095;&#1085;&#1080;&#1082;&#1080;</text><line style="stroke:#181818;stroke-width:0.5;" x1="23.5" x2="264.5" y1="268" y2="268"/><text fill="#000000" font-family="sans-serif" font-size="14" lengthAdjust="spacing" textLength="58" x="28.5" y="286.5332">&#1061;&#1077;&#1096;&#1088;&#1077;&#1081;&#1090;</text><line style="stroke:#181818;stroke-width:1.0;" x1="23.5" x2="264.5" y1="293.6094" y2="293.6094"/><rect fill="#F24D5C" height="6" style="stroke:#C82930;stroke-width:1.0;" width="6" x="30.5" y="304.9141"/><text fill="#000000" font-family="sans-serif" font-size="14" lengthAdjust="spacing" textLength="94" x="42.5" y="312.1426">id (AutoField) -</text><ellipse cx="33.5" cy="325.5234" fill="#84BE84" rx="3" ry="3" style="stroke:#038048;stroke-width:1.0;"/><text fill="#000000" font-family="sans-serif" font-size="14" lengthAdjust="spacing" textLength="132" x="42.5" y="329.752">value (IntegerField) -</text><ellipse cx="33.5" cy="343.1328" fill="#84BE84" rx="3" ry="3" style="stroke:#038048;stroke-width:1.0;"/><text fill="#000000" font-family="sans-serif" font-size="14" lengthAdjust="spacing" textLength="112" x="42.5" y="347.3613">type (CharField) -</text><line style="stroke:#181818;stroke-width:1.0;" x1="23.5" x2="264.5" y1="354.4375" y2="354.4375"/></g><!--class Power--><g id="elem_Power"><rect codeLine="52" fill="#D6D7F4" height="108.8281" id="Power" rx="2.5" ry="2.5" style="stroke:#181818;stroke-width:0.5;" width="225" x="300.5" y="244.5"/><ellipse cx="315.5" cy="260.5" fill="#ADD1B2" rx="11" ry="11" style="stroke:#181818;stroke-width:1.0;"/><path d="M318.2656,256.375 Q318.4219,256.1563 318.6094,256.0469 Q318.7969,255.9375 319.0156,255.9375 Q319.3906,255.9375 319.625,256.1953 Q319.8594,256.4531 319.8594,257.0625 L319.8594,258.5156 Q319.8594,259.125 319.625,259.3906 Q319.3906,259.6563 319.0156,259.6563 Q318.6719,259.6563 318.4688,259.4531 Q318.2656,259.2656 318.1563,258.75 Q318.1094,258.3906 317.9219,258.2031 Q317.5938,257.8281 316.9844,257.6094 Q316.375,257.3906 315.75,257.3906 Q314.9844,257.3906 314.3516,257.7188 Q313.7188,258.0469 313.2266,258.7969 Q312.7344,259.5469 312.7344,260.5781 L312.7344,261.6719 Q312.7344,262.9063 313.625,263.7266 Q314.5156,264.5469 316.1094,264.5469 Q317.0469,264.5469 317.7031,264.2969 Q318.0938,264.1406 318.5156,263.7031 Q318.7813,263.4375 318.9297,263.3594 Q319.0781,263.2813 319.2813,263.2813 Q319.6094,263.2813 319.8672,263.5391 Q320.125,263.7969 320.125,264.1406 Q320.125,264.4844 319.7813,264.8906 Q319.2813,265.4688 318.4844,265.7969 Q317.4063,266.25 316.1094,266.25 Q314.5938,266.25 313.3906,265.625 Q312.4063,265.125 311.7188,264.0547 Q311.0313,262.9844 311.0313,261.7031 L311.0313,260.5469 Q311.0313,259.2188 311.6484,258.0703 Q312.2656,256.9219 313.3594,256.3047 Q314.4531,255.6875 315.6875,255.6875 Q316.4219,255.6875 317.0703,255.8516 Q317.7188,256.0156 318.2656,256.375 Z " fill="#000000"/><text fill="#000000" font-family="sans-serif" font-size="14" lengthAdjust="spacing" textLength="96" x="329.5" y="266.2285">common.Power</text><rect fill="#FFFFFF" height="17.0938" style="stroke:#181818;stroke-width:1.0;stroke-dasharray:2.0,2.0;" width="91" x="437.5" y="241.5"/><text fill="#000000" font-family="sans-serif" font-size="12" font-style="italic" lengthAdjust="spacing" textLength="89" x="438.5" y="254.957">4. &#1057;&#1087;&#1088;&#1072;&#1074;&#1086;&#1095;&#1085;&#1080;&#1082;&#1080;</text><line style="stroke:#181818;stroke-width:0.5;" x1="301.5" x2="524.5" y1="276.5" y2="276.5"/><text fill="#000000" font-family="sans-serif" font-size="14" lengthAdjust="spacing" textLength="144" x="306.5" y="295.0332">&#1055;&#1086;&#1090;&#1088;&#1077;&#1073;&#1083;&#1077;&#1085;&#1080;&#1077; &#1101;&#1085;&#1077;&#1088;&#1075;&#1080;&#1080;</text><line style="stroke:#181818;stroke-width:1.0;" x1="301.5" x2="524.5" y1="302.1094" y2="302.1094"/><rect fill="#F24D5C" height="6" style="stroke:#C82930;stroke-width:1.0;" width="6" x="308.5" y="313.4141"/><text fill="#000000" font-family="sans-serif" font-size="14" lengthAdjust="spacing" textLength="94" x="320.5" y="320.6426">id (AutoField) -</text><ellipse cx="311.5" cy="334.0234" fill="#84BE84" rx="3" ry="3" style="stroke:#038048;stroke-width:1.0;"/><text fill="#000000" font-family="sans-serif" font-size="14" lengthAdjust="spacing" textLength="132" x="320.5" y="338.252">value (IntegerField) -</text><line style="stroke:#181818;stroke-width:1.0;" x1="301.5" x2="524.5" y1="345.3281" y2="345.3281"/></g><!--class Contact--><g id="elem_Contact"><rect codeLine="61" fill="#D6D7F4" height="126.4375" id="Contact" rx="2.5" ry="2.5" style="stroke:#181818;stroke-width:0.5;" width="235" x="560.5" y="236"/><ellipse cx="575.5" cy="252" fill="#ADD1B2" rx="11" ry="11" style="stroke:#181818;stroke-width:1.0;"/><path d="M578.2656,247.875 Q578.4219,247.6563 578.6094,247.5469 Q578.7969,247.4375 579.0156,247.4375 Q579.3906,247.4375 579.625,247.6953 Q579.8594,247.9531 579.8594,248.5625 L579.8594,250.0156 Q579.8594,250.625 579.625,250.8906 Q579.3906,251.1563 579.0156,251.1563 Q578.6719,251.1563 578.4688,250.9531 Q578.2656,250.7656 578.1563,250.25 Q578.1094,249.8906 577.9219,249.7031 Q577.5938,249.3281 576.9844,249.1094 Q576.375,248.8906 575.75,248.8906 Q574.9844,248.8906 574.3516,249.2188 Q573.7188,249.5469 573.2266,250.2969 Q572.7344,251.0469 572.7344,252.0781 L572.7344,253.1719 Q572.7344,254.4063 573.625,255.2266 Q574.5156,256.0469 576.1094,256.0469 Q577.0469,256.0469 577.7031,255.7969 Q578.0938,255.6406 578.5156,255.2031 Q578.7813,254.9375 578.9297,254.8594 Q579.0781,254.7813 579.2813,254.7813 Q579.6094,254.7813 579.8672,255.0391 Q580.125,255.2969 580.125,255.6406 Q580.125,255.9844 579.7813,256.3906 Q579.2813,256.9688 578.4844,257.2969 Q577.4063,257.75 576.1094,257.75 Q574.5938,257.75 573.3906,257.125 Q572.4063,256.625 571.7188,255.5547 Q571.0313,254.4844 571.0313,253.2031 L571.0313,252.0469 Q571.0313,250.7188 571.6484,249.5703 Q572.2656,248.4219 573.3594,247.8047 Q574.4531,247.1875 575.6875,247.1875 Q576.4219,247.1875 577.0703,247.3516 Q577.7188,247.5156 578.2656,247.875 Z " fill="#000000"/><text fill="#000000" font-family="sans-serif" font-size="14" lengthAdjust="spacing" textLength="106" x="589.5" y="257.7285">common.Contact</text><rect fill="#FFFFFF" height="17.0938" style="stroke:#181818;stroke-width:1.0;stroke-dasharray:2.0,2.0;" width="91" x="707.5" y="233"/><text fill="#000000" font-family="sans-serif" font-size="12" font-style="italic" lengthAdjust="spacing" textLength="89" x="708.5" y="246.457">4. &#1057;&#1087;&#1088;&#1072;&#1074;&#1086;&#1095;&#1085;&#1080;&#1082;&#1080;</text><line style="stroke:#181818;stroke-width:0.5;" x1="561.5" x2="794.5" y1="268" y2="268"/><text fill="#000000" font-family="sans-serif" font-size="14" lengthAdjust="spacing" textLength="62" x="566.5" y="286.5332">&#1050;&#1086;&#1085;&#1090;&#1072;&#1082;&#1090;&#1099;</text><line style="stroke:#181818;stroke-width:1.0;" x1="561.5" x2="794.5" y1="293.6094" y2="293.6094"/><rect fill="#F24D5C" height="6" style="stroke:#C82930;stroke-width:1.0;" width="6" x="568.5" y="304.9141"/><text fill="#000000" font-family="sans-serif" font-size="14" lengthAdjust="spacing" textLength="94" x="580.5" y="312.1426">id (AutoField) -</text><ellipse cx="571.5" cy="325.5234" fill="#84BE84" rx="3" ry="3" style="stroke:#038048;stroke-width:1.0;"/><text fill="#000000" font-family="sans-serif" font-size="14" lengthAdjust="spacing" textLength="115" x="580.5" y="329.752">value (TextField) -</text><ellipse cx="571.5" cy="343.1328" fill="#84BE84" rx="3" ry="3" style="stroke:#038048;stroke-width:1.0;"/><text fill="#000000" font-family="sans-serif" font-size="14" lengthAdjust="spacing" textLength="112" x="580.5" y="347.3613">type (CharField) -</text><line style="stroke:#181818;stroke-width:1.0;" x1="561.5" x2="794.5" y1="354.4375" y2="354.4375"/></g><!--class DESCRIPTION--><g id="elem_DESCRIPTION"><rect codeLine="2" fill="#FFFFFF" height="142.4375" id="DESCRIPTION" rx="2.5" ry="2.5" style="stroke:#181818;stroke-width:0.5;" width="270" x="882" y="34"/><ellipse cx="912.75" cy="50" fill="#ADD1B2" rx="11" ry="11" style="stroke:#181818;stroke-width:1.0;"/><path d="M915.5156,45.875 Q915.6719,45.6563 915.8594,45.5469 Q916.0469,45.4375 916.2656,45.4375 Q916.6406,45.4375 916.875,45.6953 Q917.1094,45.9531 917.1094,46.5625 L917.1094,48.0156 Q917.1094,48.625 916.875,48.8906 Q916.6406,49.1563 916.2656,49.1563 Q915.9219,49.1563 915.7188,48.9531 Q915.5156,48.7656 915.4063,48.25 Q915.3594,47.8906 915.1719,47.7031 Q914.8438,47.3281 914.2344,47.1094 Q913.625,46.8906 913,46.8906 Q912.2344,46.8906 911.6016,47.2188 Q910.9688,47.5469 910.4766,48.2969 Q909.9844,49.0469 909.9844,50.0781 L909.9844,51.1719 Q909.9844,52.4063 910.875,53.2266 Q911.7656,54.0469 913.3594,54.0469 Q914.2969,54.0469 914.9531,53.7969 Q915.3438,53.6406 915.7656,53.2031 Q916.0313,52.9375 916.1797,52.8594 Q916.3281,52.7813 916.5313,52.7813 Q916.8594,52.7813 917.1172,53.0391 Q917.375,53.2969 917.375,53.6406 Q917.375,53.9844 917.0313,54.3906 Q916.5313,54.9688 915.7344,55.2969 Q914.6563,55.75 913.3594,55.75 Q911.8438,55.75 910.6406,55.125 Q909.6563,54.625 908.9688,53.5547 Q908.2813,52.4844 908.2813,51.2031 L908.2813,50.0469 Q908.2813,48.7188 908.8984,47.5703 Q909.5156,46.4219 910.6094,45.8047 Q911.7031,45.1875 912.9375,45.1875 Q913.6719,45.1875 914.3203,45.3516 Q914.9688,45.5156 915.5156,45.875 Z " fill="#000000"/><text fill="#000000" font-family="sans-serif" font-size="14" lengthAdjust="spacing" textLength="203" x="930.25" y="55.7285">Explanation of the symbols used</text><line style="stroke:#181818;stroke-width:0.5;" x1="883" x2="1151" y1="66" y2="66"/><rect fill="#F24D5C" height="6" style="stroke:#C82930;stroke-width:1.0;" width="6" x="890" y="77.3047"/><text fill="#000000" font-family="sans-serif" font-size="14" lengthAdjust="spacing" textLength="135" x="902" y="84.5332">AutoField (identifiers)</text><line style="stroke:#181818;stroke-width:1.0;stroke-dasharray:1.0,2.0;" x1="883" x2="1151" y1="91.6094" y2="91.6094"/><ellipse cx="893" cy="105.9141" fill="#84BE84" rx="3" ry="3" style="stroke:#038048;stroke-width:1.0;"/><text fill="#000000" font-family="sans-serif" font-size="14" lengthAdjust="spacing" textLength="148" x="902" y="110.1426">Regular field (anything)</text><line style="stroke:#181818;stroke-width:1.0;stroke-dasharray:1.0,2.0;" x1="883" x2="1151" y1="117.2188" y2="117.2188"/><polygon fill="#FFFF44" points="893,126.5234,897,130.5234,893,134.5234,889,130.5234" style="stroke:#B38D22;stroke-width:1.0;"/><text fill="#000000" font-family="sans-serif" font-size="14" lengthAdjust="spacing" textLength="172" x="902" y="135.752">ForeignKey (ManyToMany)</text><line style="stroke:#181818;stroke-width:1.0;stroke-dasharray:1.0,2.0;" x1="883" x2="1151" y1="142.8281" y2="142.8281"/><polygon fill="#4177AF" points="893,153.1328,889,159.1328,897,159.1328" style="stroke:#1963A0;stroke-width:1.0;"/><text fill="#000000" font-family="sans-serif" font-size="14" lengthAdjust="spacing" textLength="244" x="902" y="161.3613">ForeignKey (OneToOne, OneToMany)</text><line style="stroke:#181818;stroke-width:1.0;" x1="883" x2="1151" y1="168.4375" y2="168.4375"/></g><!--SRC=[hPBFJjj04CRlVeeHkGIroGcrbweI3LX4Y3-2lC3MtjWhsRjelQPOLIiKLG89QAiUUwbww9r2hGO2z1LctwWJ9u1iSN04b_Mkz_l6tsyy001Un984vfRtTY8ccH5AWkg32JaaMVnMHGca2VVdW2MmjBpTsUfkzheRwz1mNHVUErG0Mh2O6kKA7ldG53wNHlG5rybySTjk5uzdiCM3D68Q-XCXava9XGnAgWQuIdCHo5MUGNEDD3qrNakYZoNHXkGzHSjpA7RtwbRB-U0upfJFKt6iPFkDPjA7Lmjjm9_up-xZAPxXZJt0QnpY9GvV5w0bSSD_uR_iBqnXyGUPRaZyTsp4FpYq0ynnP8zlFpffYI34kxRCGslQ1CbY3irEo7Jfui6iYr6Wj31XN3VllQ6I-IkEy9ni-qNQAx27jFbKW9nHHQfblpnv_4wgDPTUjYOa_UQw31LN1UGRUKVsCq6SrigxowAK0YznJyGiUWJC2aj2pGolYt6dhm3ymjmUaZV72pkO1Q4h3G-uhboQRASsmgPwntNT_1DnTVH9FYZ2_wQ1oWjZ3lQ4DZczFgVZyB5C3u-IaePvflOCJUML-DzftA_7euENX74qIz8UtpCpjFu_]--></g></svg>