<?xml version="1.0" encoding="us-ascii" standalone="no"?><svg xmlns="http://www.w3.org/2000/svg" xmlns:xlink="http://www.w3.org/1999/xlink" contentStyleType="text/css" height="720px" preserveAspectRatio="none" style="width:918px;height:720px;background:#FFFFFF;" version="1.1" viewBox="0 0 918 720" width="918px" zoomAndPan="magnify"><defs/><g><!--cluster users--><g id="cluster_users"><path d="M8.5,6 L49.5,6 A3.75,3.75 0 0 1 52,8.5 L59,29.6094 L619.5,29.6094 A2.5,2.5 0 0 1 622,32.1094 L622,710.5 A2.5,2.5 0 0 1 619.5,713 L8.5,713 A2.5,2.5 0 0 1 6,710.5 L6,8.5 A2.5,2.5 0 0 1 8.5,6 " fill="none" style="stroke:#000000;stroke-width:1.5;"/><line style="stroke:#000000;stroke-width:1.5;" x1="6" x2="59" y1="29.6094" y2="29.6094"/><text fill="#000000" font-family="sans-serif" font-size="14" font-weight="bold" lengthAdjust="spacing" textLength="40" x="10" y="22.5332">users</text></g><!--cluster auth--><g id="cluster_auth"><path d="M648.5,406.5 L680.5,406.5 A3.75,3.75 0 0 1 683,409 L690,430.1094 L884.5,430.1094 A2.5,2.5 0 0 1 887,432.6094 L887,504 A2.5,2.5 0 0 1 884.5,506.5 L648.5,506.5 A2.5,2.5 0 0 1 646,504 L646,409 A2.5,2.5 0 0 1 648.5,406.5 " fill="none" style="stroke:#000000;stroke-width:1.5;"/><line style="stroke:#000000;stroke-width:1.5;" x1="646" x2="690" y1="430.1094" y2="430.1094"/><text fill="#000000" font-family="sans-serif" font-size="14" font-weight="bold" lengthAdjust="spacing" textLength="31" x="650" y="423.0332">auth</text></g><!--class Address--><g id="elem_Address"><rect codeLine="14" fill="#D6DEF4" height="126.4375" id="Address" rx="2.5" ry="2.5" style="stroke:#181818;stroke-width:0.5;" width="231" x="85.5" y="42"/><ellipse cx="100.5" cy="58" fill="#ADD1B2" rx="11" ry="11" style="stroke:#181818;stroke-width:1.0;"/><path d="M103.2656,53.875 Q103.4219,53.6563 103.6094,53.5469 Q103.7969,53.4375 104.0156,53.4375 Q104.3906,53.4375 104.625,53.6953 Q104.8594,53.9531 104.8594,54.5625 L104.8594,56.0156 Q104.8594,56.625 104.625,56.8906 Q104.3906,57.1563 104.0156,57.1563 Q103.6719,57.1563 103.4688,56.9531 Q103.2656,56.7656 103.1563,56.25 Q103.1094,55.8906 102.9219,55.7031 Q102.5938,55.3281 101.9844,55.1094 Q101.375,54.8906 100.75,54.8906 Q99.9844,54.8906 99.3516,55.2188 Q98.7188,55.5469 98.2266,56.2969 Q97.7344,57.0469 97.7344,58.0781 L97.7344,59.1719 Q97.7344,60.4063 98.625,61.2266 Q99.5156,62.0469 101.1094,62.0469 Q102.0469,62.0469 102.7031,61.7969 Q103.0938,61.6406 103.5156,61.2031 Q103.7813,60.9375 103.9297,60.8594 Q104.0781,60.7813 104.2813,60.7813 Q104.6094,60.7813 104.8672,61.0391 Q105.125,61.2969 105.125,61.6406 Q105.125,61.9844 104.7813,62.3906 Q104.2813,62.9688 103.4844,63.2969 Q102.4063,63.75 101.1094,63.75 Q99.5938,63.75 98.3906,63.125 Q97.4063,62.625 96.7188,61.5547 Q96.0313,60.4844 96.0313,59.2031 L96.0313,58.0469 Q96.0313,56.7188 96.6484,55.5703 Q97.2656,54.4219 98.3594,53.8047 Q99.4531,53.1875 100.6875,53.1875 Q101.4219,53.1875 102.0703,53.3516 Q102.7188,53.5156 103.2656,53.875 Z " fill="#000000"/><text fill="#000000" font-family="sans-serif" font-size="14" lengthAdjust="spacing" textLength="91" x="114.5" y="63.7285">users.Address</text><rect fill="#FFFFFF" height="17.0938" style="stroke:#181818;stroke-width:1.0;stroke-dasharray:2.0,2.0;" width="102" x="217.5" y="39"/><text fill="#000000" font-family="sans-serif" font-size="12" font-style="italic" lengthAdjust="spacing" textLength="100" x="218.5" y="52.457">1. &#1055;&#1086;&#1083;&#1100;&#1079;&#1086;&#1074;&#1072;&#1090;&#1077;&#1083;&#1080;</text><line style="stroke:#181818;stroke-width:0.5;" x1="86.5" x2="315.5" y1="74" y2="74"/><text fill="#000000" font-family="sans-serif" font-size="14" lengthAdjust="spacing" textLength="40" x="91.5" y="92.5332">&#1040;&#1076;&#1088;&#1077;&#1089;</text><line style="stroke:#181818;stroke-width:1.0;" x1="86.5" x2="315.5" y1="99.6094" y2="99.6094"/><rect fill="#F24D5C" height="6" style="stroke:#C82930;stroke-width:1.0;" width="6" x="93.5" y="110.9141"/><text fill="#000000" font-family="sans-serif" font-size="14" lengthAdjust="spacing" textLength="94" x="105.5" y="118.1426">id (AutoField) -</text><polygon fill="#4177AF" points="96.5,127.5234,92.5,133.5234,100.5,133.5234" style="stroke:#1963A0;stroke-width:1.0;"/><text fill="#000000" font-family="sans-serif" font-size="14" lengthAdjust="spacing" textLength="124" x="105.5" y="135.752">user (ForeignKey) -</text><ellipse cx="96.5" cy="149.1328" fill="#84BE84" rx="3" ry="3" style="stroke:#038048;stroke-width:1.0;"/><text fill="#000000" font-family="sans-serif" font-size="14" lengthAdjust="spacing" textLength="115" x="105.5" y="153.3613">value (TextField) -</text><line style="stroke:#181818;stroke-width:1.0;" x1="86.5" x2="315.5" y1="160.4375" y2="160.4375"/></g><!--class User--><g id="elem_User"><rect codeLine="36" fill="#D6DEF4" height="461.0156" id="User" rx="2.5" ry="2.5" style="stroke:#181818;stroke-width:0.5;" width="583" x="22.5" y="236"/><ellipse cx="221.75" cy="252" fill="#ADD1B2" rx="11" ry="11" style="stroke:#181818;stroke-width:1.0;"/><path d="M224.5156,247.875 Q224.6719,247.6563 224.8594,247.5469 Q225.0469,247.4375 225.2656,247.4375 Q225.6406,247.4375 225.875,247.6953 Q226.1094,247.9531 226.1094,248.5625 L226.1094,250.0156 Q226.1094,250.625 225.875,250.8906 Q225.6406,251.1563 225.2656,251.1563 Q224.9219,251.1563 224.7188,250.9531 Q224.5156,250.7656 224.4063,250.25 Q224.3594,249.8906 224.1719,249.7031 Q223.8438,249.3281 223.2344,249.1094 Q222.625,248.8906 222,248.8906 Q221.2344,248.8906 220.6016,249.2188 Q219.9688,249.5469 219.4766,250.2969 Q218.9844,251.0469 218.9844,252.0781 L218.9844,253.1719 Q218.9844,254.4063 219.875,255.2266 Q220.7656,256.0469 222.3594,256.0469 Q223.2969,256.0469 223.9531,255.7969 Q224.3438,255.6406 224.7656,255.2031 Q225.0313,254.9375 225.1797,254.8594 Q225.3281,254.7813 225.5313,254.7813 Q225.8594,254.7813 226.1172,255.0391 Q226.375,255.2969 226.375,255.6406 Q226.375,255.9844 226.0313,256.3906 Q225.5313,256.9688 224.7344,257.2969 Q223.6563,257.75 222.3594,257.75 Q220.8438,257.75 219.6406,257.125 Q218.6563,256.625 217.9688,255.5547 Q217.2813,254.4844 217.2813,253.2031 L217.2813,252.0469 Q217.2813,250.7188 217.8984,249.5703 Q218.5156,248.4219 219.6094,247.8047 Q220.7031,247.1875 221.9375,247.1875 Q222.6719,247.1875 223.3203,247.3516 Q223.9688,247.5156 224.5156,247.875 Z " fill="#000000"/><text fill="#000000" font-family="sans-serif" font-size="14" lengthAdjust="spacing" textLength="68" x="242.25" y="257.7285">users.User</text><rect fill="#FFFFFF" height="17.0938" style="stroke:#181818;stroke-width:1.0;stroke-dasharray:2.0,2.0;" width="102" x="506.5" y="233"/><text fill="#000000" font-family="sans-serif" font-size="12" font-style="italic" lengthAdjust="spacing" textLength="100" x="507.5" y="246.457">1. &#1055;&#1086;&#1083;&#1100;&#1079;&#1086;&#1074;&#1072;&#1090;&#1077;&#1083;&#1080;</text><line style="stroke:#181818;stroke-width:0.5;" x1="23.5" x2="604.5" y1="268" y2="268"/><text fill="#000000" font-family="sans-serif" font-size="14" lengthAdjust="spacing" textLength="93" x="28.5" y="286.5332">&#1055;&#1086;&#1083;&#1100;&#1079;&#1086;&#1074;&#1072;&#1090;&#1077;&#1083;&#1100;</text><line style="stroke:#181818;stroke-width:1.0;" x1="23.5" x2="604.5" y1="293.6094" y2="293.6094"/><rect fill="#F24D5C" height="6" style="stroke:#C82930;stroke-width:1.0;" width="6" x="30.5" y="304.9141"/><text fill="#000000" font-family="sans-serif" font-size="14" lengthAdjust="spacing" textLength="94" x="42.5" y="312.1426">id (AutoField) -</text><ellipse cx="33.5" cy="325.5234" fill="#84BE84" rx="3" ry="3" style="stroke:#038048;stroke-width:1.0;"/><text fill="#000000" font-family="sans-serif" font-size="14" lengthAdjust="spacing" textLength="145" x="42.5" y="329.752">password (CharField) -</text><ellipse cx="33.5" cy="343.1328" fill="#84BE84" rx="3" ry="3" style="stroke:#038048;stroke-width:1.0;"/><text fill="#000000" font-family="sans-serif" font-size="14" lengthAdjust="spacing" textLength="175" x="42.5" y="347.3613">last_login (DateTimeField) -</text><ellipse cx="33.5" cy="360.7422" fill="#84BE84" rx="3" ry="3" style="stroke:#038048;stroke-width:1.0;"/><text fill="#000000" font-family="sans-serif" font-size="14" lengthAdjust="spacing" textLength="527" x="42.5" y="364.9707">is_superuser (BooleanField) - &#1059;&#1082;&#1072;&#1079;&#1099;&#1074;&#1072;&#1077;&#1090;, &#1095;&#1090;&#1086; &#1087;&#1086;&#1083;&#1100;&#1079;&#1086;&#1074;&#1072;&#1090;&#1077;&#1083;&#1100; &#1080;&#1084;&#1077;&#1077;&#1090; &#1074;&#1089;&#1077; &#1087;&#1088;&#1072;&#1074;&#1072; &#1073;&#1077;&#1079;</text><text fill="#000000" font-family="sans-serif" font-size="14" lengthAdjust="spacing" textLength="147" x="42.5" y="382.5801">&#1103;&#1074;&#1085;&#1086;&#1075;&#1086; &#1080;&#1093; &#1085;&#1072;&#1079;&#1085;&#1072;&#1095;&#1077;&#1085;&#1080;&#1103;.</text><ellipse cx="33.5" cy="395.9609" fill="#84BE84" rx="3" ry="3" style="stroke:#038048;stroke-width:1.0;"/><text fill="#000000" font-family="sans-serif" font-size="14" lengthAdjust="spacing" textLength="503" x="42.5" y="400.1895">username (CharField) - &#1054;&#1073;&#1103;&#1079;&#1072;&#1090;&#1077;&#1083;&#1100;&#1085;&#1086;&#1077; &#1087;&#1086;&#1083;&#1077;. &#1053;&#1077; &#1073;&#1086;&#1083;&#1077;&#1077; 150 &#1089;&#1080;&#1084;&#1074;&#1086;&#1083;&#1086;&#1074;. &#1058;&#1086;&#1083;&#1100;&#1082;&#1086;</text><text fill="#000000" font-family="sans-serif" font-size="14" lengthAdjust="spacing" textLength="229" x="42.5" y="417.7988">&#1073;&#1091;&#1082;&#1074;&#1099;, &#1094;&#1080;&#1092;&#1088;&#1099; &#1080; &#1089;&#1080;&#1084;&#1074;&#1086;&#1083;&#1099; @/./+/-/_.</text><ellipse cx="33.5" cy="431.1797" fill="#84BE84" rx="3" ry="3" style="stroke:#038048;stroke-width:1.0;"/><text fill="#000000" font-family="sans-serif" font-size="14" lengthAdjust="spacing" textLength="125" x="42.5" y="435.4082">phone (CharField) -</text><ellipse cx="33.5" cy="448.7891" fill="#84BE84" rx="3" ry="3" style="stroke:#038048;stroke-width:1.0;"/><text fill="#000000" font-family="sans-serif" font-size="14" lengthAdjust="spacing" textLength="121" x="42.5" y="453.0176">email (EmailField) -</text><ellipse cx="33.5" cy="466.3984" fill="#84BE84" rx="3" ry="3" style="stroke:#038048;stroke-width:1.0;"/><text fill="#000000" font-family="sans-serif" font-size="14" lengthAdjust="spacing" textLength="151" x="42.5" y="470.627">first_name (CharField) -</text><ellipse cx="33.5" cy="484.0078" fill="#84BE84" rx="3" ry="3" style="stroke:#038048;stroke-width:1.0;"/><text fill="#000000" font-family="sans-serif" font-size="14" lengthAdjust="spacing" textLength="150" x="42.5" y="488.2363">last_name (CharField) -</text><ellipse cx="33.5" cy="501.6172" fill="#84BE84" rx="3" ry="3" style="stroke:#038048;stroke-width:1.0;"/><text fill="#000000" font-family="sans-serif" font-size="14" lengthAdjust="spacing" textLength="174" x="42.5" y="505.8457">second_name (CharField) -</text><ellipse cx="33.5" cy="519.2266" fill="#84BE84" rx="3" ry="3" style="stroke:#038048;stroke-width:1.0;"/><text fill="#000000" font-family="sans-serif" font-size="14" lengthAdjust="spacing" textLength="143" x="42.5" y="523.4551">gender (IntegerField) -</text><ellipse cx="33.5" cy="536.8359" fill="#84BE84" rx="3" ry="3" style="stroke:#038048;stroke-width:1.0;"/><text fill="#000000" font-family="sans-serif" font-size="14" lengthAdjust="spacing" textLength="346" x="42.5" y="541.0645">is_staff (BooleanField) - &#1048;&#1084;&#1077;&#1077;&#1090; &#1076;&#1086;&#1087;&#1091;&#1089;&#1082; &#1082; django-admin</text><ellipse cx="33.5" cy="554.4453" fill="#84BE84" rx="3" ry="3" style="stroke:#038048;stroke-width:1.0;"/><text fill="#000000" font-family="sans-serif" font-size="14" lengthAdjust="spacing" textLength="135" x="42.5" y="558.6738">birthday (DateField) -</text><ellipse cx="33.5" cy="572.0547" fill="#84BE84" rx="3" ry="3" style="stroke:#038048;stroke-width:1.0;"/><text fill="#000000" font-family="sans-serif" font-size="14" lengthAdjust="spacing" textLength="294" x="42.5" y="576.2832">is_active (BooleanField) - &#1071;&#1074;&#1083;&#1103;&#1077;&#1090;&#1089;&#1103; &#1072;&#1082;&#1090;&#1080;&#1074;&#1085;&#1099;&#1080;</text><ellipse cx="33.5" cy="589.6641" fill="#84BE84" rx="3" ry="3" style="stroke:#038048;stroke-width:1.0;"/><text fill="#000000" font-family="sans-serif" font-size="14" lengthAdjust="spacing" textLength="189" x="42.5" y="593.8926">date_joined (DateTimeField) -</text><ellipse cx="33.5" cy="607.2734" fill="#84BE84" rx="3" ry="3" style="stroke:#038048;stroke-width:1.0;"/><text fill="#000000" font-family="sans-serif" font-size="14" lengthAdjust="spacing" textLength="138" x="42.5" y="611.502">settings (JSONField) -</text><polygon fill="#FFFF44" points="33.5,619.8828,37.5,623.8828,33.5,627.8828,29.5,623.8828" style="stroke:#B38D22;stroke-width:1.0;"/><text fill="#000000" font-family="sans-serif" font-size="14" lengthAdjust="spacing" textLength="557" x="42.5" y="629.1113">groups (ManyToManyField) - &#1043;&#1088;&#1091;&#1087;&#1087;&#1099;, &#1082; &#1082;&#1086;&#1090;&#1086;&#1088;&#1099;&#1084; &#1087;&#1088;&#1080;&#1085;&#1072;&#1076;&#1083;&#1077;&#1078;&#1080;&#1090; &#1076;&#1072;&#1085;&#1085;&#1099;&#1081; &#1087;&#1086;&#1083;&#1100;&#1079;&#1086;&#1074;&#1072;&#1090;&#1077;&#1083;&#1100;.</text><text fill="#000000" font-family="sans-serif" font-size="14" lengthAdjust="spacing" textLength="465" x="42.5" y="646.7207">&#1055;&#1086;&#1083;&#1100;&#1079;&#1086;&#1074;&#1072;&#1090;&#1077;&#1083;&#1100; &#1087;&#1086;&#1083;&#1091;&#1095;&#1080;&#1090; &#1074;&#1089;&#1077; &#1087;&#1088;&#1072;&#1074;&#1072;, &#1091;&#1082;&#1072;&#1079;&#1072;&#1085;&#1085;&#1099;&#1077; &#1074; &#1082;&#1072;&#1078;&#1076;&#1086;&#1081; &#1080;&#1079; &#1077;&#1075;&#1086;/&#1077;&#1105; &#1075;&#1088;&#1091;&#1087;&#1087;.</text><polygon fill="#FFFF44" points="33.5,655.1016,37.5,659.1016,33.5,663.1016,29.5,659.1016" style="stroke:#B38D22;stroke-width:1.0;"/><text fill="#000000" font-family="sans-serif" font-size="14" lengthAdjust="spacing" textLength="468" x="42.5" y="664.3301">user_permissions (ManyToManyField) - &#1048;&#1085;&#1076;&#1080;&#1074;&#1080;&#1076;&#1091;&#1072;&#1083;&#1100;&#1085;&#1099;&#1077; &#1087;&#1088;&#1072;&#1074;&#1072; &#1076;&#1072;&#1085;&#1085;&#1086;&#1075;&#1086;</text><text fill="#000000" font-family="sans-serif" font-size="14" lengthAdjust="spacing" textLength="96" x="42.5" y="681.9395">&#1087;&#1086;&#1083;&#1100;&#1079;&#1086;&#1074;&#1072;&#1090;&#1077;&#1083;&#1103;.</text><line style="stroke:#181818;stroke-width:1.0;" x1="23.5" x2="604.5" y1="689.0156" y2="689.0156"/></g><!--class ProxyGroup--><g id="elem_ProxyGroup"><rect codeLine="25" fill="#D6DEF4" height="126.4375" id="ProxyGroup" rx="2.5" ry="2.5" style="stroke:#181818;stroke-width:0.5;" width="254" x="352" y="42"/><ellipse cx="367" cy="58" fill="#ADD1B2" rx="11" ry="11" style="stroke:#181818;stroke-width:1.0;"/><path d="M369.7656,53.875 Q369.9219,53.6563 370.1094,53.5469 Q370.2969,53.4375 370.5156,53.4375 Q370.8906,53.4375 371.125,53.6953 Q371.3594,53.9531 371.3594,54.5625 L371.3594,56.0156 Q371.3594,56.625 371.125,56.8906 Q370.8906,57.1563 370.5156,57.1563 Q370.1719,57.1563 369.9688,56.9531 Q369.7656,56.7656 369.6563,56.25 Q369.6094,55.8906 369.4219,55.7031 Q369.0938,55.3281 368.4844,55.1094 Q367.875,54.8906 367.25,54.8906 Q366.4844,54.8906 365.8516,55.2188 Q365.2188,55.5469 364.7266,56.2969 Q364.2344,57.0469 364.2344,58.0781 L364.2344,59.1719 Q364.2344,60.4063 365.125,61.2266 Q366.0156,62.0469 367.6094,62.0469 Q368.5469,62.0469 369.2031,61.7969 Q369.5938,61.6406 370.0156,61.2031 Q370.2813,60.9375 370.4297,60.8594 Q370.5781,60.7813 370.7813,60.7813 Q371.1094,60.7813 371.3672,61.0391 Q371.625,61.2969 371.625,61.6406 Q371.625,61.9844 371.2813,62.3906 Q370.7813,62.9688 369.9844,63.2969 Q368.9063,63.75 367.6094,63.75 Q366.0938,63.75 364.8906,63.125 Q363.9063,62.625 363.2188,61.5547 Q362.5313,60.4844 362.5313,59.2031 L362.5313,58.0469 Q362.5313,56.7188 363.1484,55.5703 Q363.7656,54.4219 364.8594,53.8047 Q365.9531,53.1875 367.1875,53.1875 Q367.9219,53.1875 368.5703,53.3516 Q369.2188,53.5156 369.7656,53.875 Z " fill="#000000"/><text fill="#000000" font-family="sans-serif" font-size="14" lengthAdjust="spacing" textLength="114" x="381" y="63.7285">users.ProxyGroup</text><rect fill="#FFFFFF" height="17.0938" style="stroke:#181818;stroke-width:1.0;stroke-dasharray:2.0,2.0;" width="102" x="507" y="39"/><text fill="#000000" font-family="sans-serif" font-size="12" font-style="italic" lengthAdjust="spacing" textLength="100" x="508" y="52.457">1. &#1055;&#1086;&#1083;&#1100;&#1079;&#1086;&#1074;&#1072;&#1090;&#1077;&#1083;&#1080;</text><line style="stroke:#181818;stroke-width:0.5;" x1="353" x2="605" y1="74" y2="74"/><text fill="#000000" font-family="sans-serif" font-size="14" lengthAdjust="spacing" textLength="47" x="358" y="92.5332">&#1043;&#1088;&#1091;&#1087;&#1087;&#1072;</text><line style="stroke:#181818;stroke-width:1.0;" x1="353" x2="605" y1="99.6094" y2="99.6094"/><rect fill="#F24D5C" height="6" style="stroke:#C82930;stroke-width:1.0;" width="6" x="360" y="110.9141"/><text fill="#000000" font-family="sans-serif" font-size="14" lengthAdjust="spacing" textLength="94" x="372" y="118.1426">id (AutoField) -</text><ellipse cx="363" cy="131.5234" fill="#84BE84" rx="3" ry="3" style="stroke:#038048;stroke-width:1.0;"/><text fill="#000000" font-family="sans-serif" font-size="14" lengthAdjust="spacing" textLength="120" x="372" y="135.752">name (CharField) -</text><polygon fill="#FFFF44" points="363,144.1328,367,148.1328,363,152.1328,359,148.1328" style="stroke:#B38D22;stroke-width:1.0;"/><text fill="#000000" font-family="sans-serif" font-size="14" lengthAdjust="spacing" textLength="214" x="372" y="153.3613">permissions (ManyToManyField) -</text><line style="stroke:#181818;stroke-width:1.0;" x1="353" x2="605" y1="160.4375" y2="160.4375"/></g><!--class Permission--><g id="elem_Permission"><rect fill="#F1F1F1" height="48" id="Permission" rx="2.5" ry="2.5" style="stroke:#181818;stroke-width:0.5;" width="101" x="662.5" y="442.5"/><ellipse cx="677.5" cy="458.5" fill="#ADD1B2" rx="11" ry="11" style="stroke:#181818;stroke-width:1.0;"/><path d="M680.2656,454.375 Q680.4219,454.1563 680.6094,454.0469 Q680.7969,453.9375 681.0156,453.9375 Q681.3906,453.9375 681.625,454.1953 Q681.8594,454.4531 681.8594,455.0625 L681.8594,456.5156 Q681.8594,457.125 681.625,457.3906 Q681.3906,457.6563 681.0156,457.6563 Q680.6719,457.6563 680.4688,457.4531 Q680.2656,457.2656 680.1563,456.75 Q680.1094,456.3906 679.9219,456.2031 Q679.5938,455.8281 678.9844,455.6094 Q678.375,455.3906 677.75,455.3906 Q676.9844,455.3906 676.3516,455.7188 Q675.7188,456.0469 675.2266,456.7969 Q674.7344,457.5469 674.7344,458.5781 L674.7344,459.6719 Q674.7344,460.9063 675.625,461.7266 Q676.5156,462.5469 678.1094,462.5469 Q679.0469,462.5469 679.7031,462.2969 Q680.0938,462.1406 680.5156,461.7031 Q680.7813,461.4375 680.9297,461.3594 Q681.0781,461.2813 681.2813,461.2813 Q681.6094,461.2813 681.8672,461.5391 Q682.125,461.7969 682.125,462.1406 Q682.125,462.4844 681.7813,462.8906 Q681.2813,463.4688 680.4844,463.7969 Q679.4063,464.25 678.1094,464.25 Q676.5938,464.25 675.3906,463.625 Q674.4063,463.125 673.7188,462.0547 Q673.0313,460.9844 673.0313,459.7031 L673.0313,458.5469 Q673.0313,457.2188 673.6484,456.0703 Q674.2656,454.9219 675.3594,454.3047 Q676.4531,453.6875 677.6875,453.6875 Q678.4219,453.6875 679.0703,453.8516 Q679.7188,454.0156 680.2656,454.375 Z " fill="#000000"/><text fill="#000000" font-family="sans-serif" font-size="14" lengthAdjust="spacing" textLength="69" x="691.5" y="464.2285">Permission</text><line style="stroke:#181818;stroke-width:0.5;" x1="663.5" x2="762.5" y1="474.5" y2="474.5"/><line style="stroke:#181818;stroke-width:0.5;" x1="663.5" x2="762.5" y1="482.5" y2="482.5"/></g><!--class Group--><g id="elem_Group"><rect fill="#F1F1F1" height="48" id="Group" rx="2.5" ry="2.5" style="stroke:#181818;stroke-width:0.5;" width="72" x="799" y="442.5"/><ellipse cx="814" cy="458.5" fill="#ADD1B2" rx="11" ry="11" style="stroke:#181818;stroke-width:1.0;"/><path d="M816.7656,454.375 Q816.9219,454.1563 817.1094,454.0469 Q817.2969,453.9375 817.5156,453.9375 Q817.8906,453.9375 818.125,454.1953 Q818.3594,454.4531 818.3594,455.0625 L818.3594,456.5156 Q818.3594,457.125 818.125,457.3906 Q817.8906,457.6563 817.5156,457.6563 Q817.1719,457.6563 816.9688,457.4531 Q816.7656,457.2656 816.6563,456.75 Q816.6094,456.3906 816.4219,456.2031 Q816.0938,455.8281 815.4844,455.6094 Q814.875,455.3906 814.25,455.3906 Q813.4844,455.3906 812.8516,455.7188 Q812.2188,456.0469 811.7266,456.7969 Q811.2344,457.5469 811.2344,458.5781 L811.2344,459.6719 Q811.2344,460.9063 812.125,461.7266 Q813.0156,462.5469 814.6094,462.5469 Q815.5469,462.5469 816.2031,462.2969 Q816.5938,462.1406 817.0156,461.7031 Q817.2813,461.4375 817.4297,461.3594 Q817.5781,461.2813 817.7813,461.2813 Q818.1094,461.2813 818.3672,461.5391 Q818.625,461.7969 818.625,462.1406 Q818.625,462.4844 818.2813,462.8906 Q817.7813,463.4688 816.9844,463.7969 Q815.9063,464.25 814.6094,464.25 Q813.0938,464.25 811.8906,463.625 Q810.9063,463.125 810.2188,462.0547 Q809.5313,460.9844 809.5313,459.7031 L809.5313,458.5469 Q809.5313,457.2188 810.1484,456.0703 Q810.7656,454.9219 811.8594,454.3047 Q812.9531,453.6875 814.1875,453.6875 Q814.9219,453.6875 815.5703,453.8516 Q816.2188,454.0156 816.7656,454.375 Z " fill="#000000"/><text fill="#000000" font-family="sans-serif" font-size="14" lengthAdjust="spacing" textLength="40" x="828" y="464.2285">Group</text><line style="stroke:#181818;stroke-width:0.5;" x1="800" x2="870" y1="474.5" y2="474.5"/><line style="stroke:#181818;stroke-width:0.5;" x1="800" x2="870" y1="482.5" y2="482.5"/></g><!--class DESCRIPTION--><g id="elem_DESCRIPTION"><rect codeLine="2" fill="#FFFFFF" height="142.4375" id="DESCRIPTION" rx="2.5" ry="2.5" style="stroke:#181818;stroke-width:0.5;" width="270" x="641" y="34"/><ellipse cx="671.75" cy="50" fill="#ADD1B2" rx="11" ry="11" style="stroke:#181818;stroke-width:1.0;"/><path d="M674.5156,45.875 Q674.6719,45.6563 674.8594,45.5469 Q675.0469,45.4375 675.2656,45.4375 Q675.6406,45.4375 675.875,45.6953 Q676.1094,45.9531 676.1094,46.5625 L676.1094,48.0156 Q676.1094,48.625 675.875,48.8906 Q675.6406,49.1563 675.2656,49.1563 Q674.9219,49.1563 674.7188,48.9531 Q674.5156,48.7656 674.4063,48.25 Q674.3594,47.8906 674.1719,47.7031 Q673.8438,47.3281 673.2344,47.1094 Q672.625,46.8906 672,46.8906 Q671.2344,46.8906 670.6016,47.2188 Q669.9688,47.5469 669.4766,48.2969 Q668.9844,49.0469 668.9844,50.0781 L668.9844,51.1719 Q668.9844,52.4063 669.875,53.2266 Q670.7656,54.0469 672.3594,54.0469 Q673.2969,54.0469 673.9531,53.7969 Q674.3438,53.6406 674.7656,53.2031 Q675.0313,52.9375 675.1797,52.8594 Q675.3281,52.7813 675.5313,52.7813 Q675.8594,52.7813 676.1172,53.0391 Q676.375,53.2969 676.375,53.6406 Q676.375,53.9844 676.0313,54.3906 Q675.5313,54.9688 674.7344,55.2969 Q673.6563,55.75 672.3594,55.75 Q670.8438,55.75 669.6406,55.125 Q668.6563,54.625 667.9688,53.5547 Q667.2813,52.4844 667.2813,51.2031 L667.2813,50.0469 Q667.2813,48.7188 667.8984,47.5703 Q668.5156,46.4219 669.6094,45.8047 Q670.7031,45.1875 671.9375,45.1875 Q672.6719,45.1875 673.3203,45.3516 Q673.9688,45.5156 674.5156,45.875 Z " fill="#000000"/><text fill="#000000" font-family="sans-serif" font-size="14" lengthAdjust="spacing" textLength="203" x="689.25" y="55.7285">Explanation of the symbols used</text><line style="stroke:#181818;stroke-width:0.5;" x1="642" x2="910" y1="66" y2="66"/><rect fill="#F24D5C" height="6" style="stroke:#C82930;stroke-width:1.0;" width="6" x="649" y="77.3047"/><text fill="#000000" font-family="sans-serif" font-size="14" lengthAdjust="spacing" textLength="135" x="661" y="84.5332">AutoField (identifiers)</text><line style="stroke:#181818;stroke-width:1.0;stroke-dasharray:1.0,2.0;" x1="642" x2="910" y1="91.6094" y2="91.6094"/><ellipse cx="652" cy="105.9141" fill="#84BE84" rx="3" ry="3" style="stroke:#038048;stroke-width:1.0;"/><text fill="#000000" font-family="sans-serif" font-size="14" lengthAdjust="spacing" textLength="148" x="661" y="110.1426">Regular field (anything)</text><line style="stroke:#181818;stroke-width:1.0;stroke-dasharray:1.0,2.0;" x1="642" x2="910" y1="117.2188" y2="117.2188"/><polygon fill="#FFFF44" points="652,126.5234,656,130.5234,652,134.5234,648,130.5234" style="stroke:#B38D22;stroke-width:1.0;"/><text fill="#000000" font-family="sans-serif" font-size="14" lengthAdjust="spacing" textLength="172" x="661" y="135.752">ForeignKey (ManyToMany)</text><line style="stroke:#181818;stroke-width:1.0;stroke-dasharray:1.0,2.0;" x1="642" x2="910" y1="142.8281" y2="142.8281"/><polygon fill="#4177AF" points="652,153.1328,648,159.1328,656,159.1328" style="stroke:#1963A0;stroke-width:1.0;"/><text fill="#000000" font-family="sans-serif" font-size="14" lengthAdjust="spacing" textLength="244" x="661" y="161.3613">ForeignKey (OneToOne, OneToMany)</text><line style="stroke:#181818;stroke-width:1.0;" x1="642" x2="910" y1="168.4375" y2="168.4375"/></g><!--reverse link Address to User--><g id="link_Address_User"><path codeLine="22" d="M224.1533,179.6562 C230.3833,199.4462 234.06,211.19 241.77,235.72 " fill="none" id="Address-backto-User" style="stroke:#181818;stroke-width:1.0;"/><polygon fill="#181818" points="220.55,168.21,218.5363,175.1342,224.1533,179.6562,226.1671,172.732,220.55,168.21" style="stroke:#181818;stroke-width:1.0;"/></g><!--link ProxyGroup to Permission--><g id="link_ProxyGroup_Permission"><path codeLine="33" d="M569.0375,176.1075 C591.2375,195.9975 604.91,211.31 622,236 C668.82,303.68 693.6618,387.2953 704.6218,430.6953 " fill="none" id="ProxyGroup-Permission" style="stroke:#181818;stroke-width:1.0;"/><polygon fill="#181818" points="560.1,168.1,561.8996,175.0829,569.0375,176.1075,567.2379,169.1246,560.1,168.1" style="stroke:#181818;stroke-width:1.0;"/><polygon fill="#181818" points="707.56,442.33,709.9692,435.5332,704.6218,430.6953,702.2127,437.492,707.56,442.33" style="stroke:#181818;stroke-width:1.0;"/></g><!--link Group to User--><g id="link_Group_User"><path codeLine="63" d="M838.8898,430.146 C843.7498,374.806 845.24,252.95 763.5,206 C689.39,163.44 618.5775,181.4381 546.1575,229.3581 " fill="none" id="Group-User" style="stroke:#181818;stroke-width:1.0;"/><polygon fill="#181818" points="837.84,442.1,842.3496,436.4729,838.8898,430.146,834.3802,435.7731,837.84,442.1" style="stroke:#181818;stroke-width:1.0;"/><polygon fill="#181818" points="536.15,235.98,543.3611,236.0049,546.1575,229.3581,538.9464,229.3332,536.15,235.98" style="stroke:#181818;stroke-width:1.0;"/></g><!--link Permission to User--><g id="link_Permission_User"><path codeLine="64" d="M650.35,466.5 C631.52,466.5 636.68,466.5 617.85,466.5 " fill="none" id="Permission-User" style="stroke:#181818;stroke-width:1.0;"/><polygon fill="#181818" points="662.35,466.5,656.35,462.5,650.35,466.5,656.35,470.5,662.35,466.5" style="stroke:#181818;stroke-width:1.0;"/><polygon fill="#181818" points="605.85,466.5,611.85,470.5,617.85,466.5,611.85,462.5,605.85,466.5" style="stroke:#181818;stroke-width:1.0;"/></g><!--SRC=[ZLLTRzis57tNhxXeNjouibjWsrCnh1_na0vhWjPxDjY8jbd8f279ROnXGrDlxKCAPCDUzh8DQ7z07JUktQH9_mBvZtP8IOdjIcXWGo9vB-yzX_TSYeXe9sHnJ5SsTliXaomHIf9gKzBb50zxZrGOqo3cmHLYCTtTU7ZdmUPsStFhFgqr6WtwsKC0ykdM854DmSE0AYBWCX5jmQFughFMQkvLfGUyCmXPHEtKaSbXqXMoi-IrHWqLST6HF_0XLNw4JrFPvvBJhqjEMv8t5HxNo8qkl7tV-yNpl8mVI4HnxLOGH1pJcpTgfF_JP_h4lD8pl2TwR9xhgJxHysyTrsN_jU2RWBU_oWZhF_IHUQQdPYzFb1w30AtpexXAVeRMXgBA1URSKgKdB1nmgZJvRhAqnq5VHh3k-nccd_1SvRKTgTtXzv4Qz2zDRM7B2hk_p3Cpqf_m6r-2NvKawu74dIwBbWnhrETHJyGn91Kl5hECwW8Yi5qdDaYwjUtp6AkSxJbScgrpNk5PkCsykXJdFe0yLL5GmBjAG9cqGjKHaYftMSAReiTNN4JSYWSudrGRjvKAEPEv3-at-bYFzSpiMs0GslDhP5u2u1cXAeMeIS_rHmpXItfYzlGKhX3fs3gHFeHfvfa3p4wnyPsDD3U_4sR8Ov_c9LnEiNYGDwp5zdbjIV-h3n5eTf7RXPncqFGK5Vd7JW_JAOOtlhvEW6GHJjmYeCFhTKRbM9zvY3d2O6BsGVK5OFm65Uu3vD96h7nNhzMhTR_Uoc7skqhomZhm7XCXLJRiQyNK5X5gLABSh8AbrfZlA1cKspjS1hQicpBX7HuLb3vXxNP1sV- -AE4Hw7uo8v0_9lo3nqnsbC-2df1Pd4SYIhe16wOQ-pm9sqd44rwGvItEyWGLH1wpPmu82ZX6AUTM6r3SF0iH86hhiHAI1wKoZdcIu0v7Uzzxk7L_fVqxjfKBEt_XZh7rTXJrcTMtBRh-c4ftxiHvv3Jq7efmfpB6eaNveRGJQbvPP-TRHj3wlAXF8BrHsdddUM2Ua5jxxshomJRQZ10GFLJ76Vv9-brE9l-8sSvfVU7sizK-HKXxx7DyJqP8uNefJRhGkndfj6sz4jfProvSf-xAM_T3taxoozHThkNcnRlsVm00]--></g></svg>