<?xml version="1.0" encoding="us-ascii" standalone="no"?><svg xmlns="http://www.w3.org/2000/svg" xmlns:xlink="http://www.w3.org/1999/xlink" contentStyleType="text/css" height="466px" preserveAspectRatio="none" style="width:821px;height:466px;background:#FFFFFF;" version="1.1" viewBox="0 0 821 466" width="821px" zoomAndPan="magnify"><defs/><g><!--cluster orders--><g id="cluster_orders"><path d="M8.5,6 L56.5,6 A3.75,3.75 0 0 1 59,8.5 L66,29.6094 L261.5,29.6094 A2.5,2.5 0 0 1 264,32.1094 L264,456.5 A2.5,2.5 0 0 1 261.5,459 L8.5,459 A2.5,2.5 0 0 1 6,456.5 L6,8.5 A2.5,2.5 0 0 1 8.5,6 " fill="none" style="stroke:#000000;stroke-width:1.5;"/><line style="stroke:#000000;stroke-width:1.5;" x1="6" x2="66" y1="29.6094" y2="29.6094"/><text fill="#000000" font-family="sans-serif" font-size="14" font-weight="bold" lengthAdjust="spacing" textLength="47" x="10" y="22.5332">orders</text></g><!--cluster users--><g id="cluster_users"><path d="M428.5,284.5 L469.5,284.5 A3.75,3.75 0 0 1 472,287 L479,308.1094 L636.5,308.1094 A2.5,2.5 0 0 1 639,310.6094 L639,382 A2.5,2.5 0 0 1 636.5,384.5 L428.5,384.5 A2.5,2.5 0 0 1 426,382 L426,287 A2.5,2.5 0 0 1 428.5,284.5 " fill="none" style="stroke:#000000;stroke-width:1.5;"/><line style="stroke:#000000;stroke-width:1.5;" x1="426" x2="479" y1="308.1094" y2="308.1094"/><text fill="#000000" font-family="sans-serif" font-size="14" font-weight="bold" lengthAdjust="spacing" textLength="40" x="430" y="301.0332">users</text></g><!--cluster products--><g id="cluster_products"><path d="M290.5,284.5 L354.5,284.5 A3.75,3.75 0 0 1 357,287 L364,308.1094 L399.5,308.1094 A2.5,2.5 0 0 1 402,310.6094 L402,382 A2.5,2.5 0 0 1 399.5,384.5 L290.5,384.5 A2.5,2.5 0 0 1 288,382 L288,287 A2.5,2.5 0 0 1 290.5,284.5 " fill="none" style="stroke:#000000;stroke-width:1.5;"/><line style="stroke:#000000;stroke-width:1.5;" x1="288" x2="364" y1="308.1094" y2="308.1094"/><text fill="#000000" font-family="sans-serif" font-size="14" font-weight="bold" lengthAdjust="spacing" textLength="63" x="292" y="301.0332">products</text></g><!--class Order--><g id="elem_Order"><rect codeLine="13" fill="#DEF4D6" height="196.875" id="Order" rx="2.5" ry="2.5" style="stroke:#181818;stroke-width:0.5;" width="225" x="22.5" y="246"/><ellipse cx="59.1" cy="262" fill="#ADD1B2" rx="11" ry="11" style="stroke:#181818;stroke-width:1.0;"/><path d="M61.8656,257.875 Q62.0219,257.6563 62.2094,257.5469 Q62.3969,257.4375 62.6156,257.4375 Q62.9906,257.4375 63.225,257.6953 Q63.4594,257.9531 63.4594,258.5625 L63.4594,260.0156 Q63.4594,260.625 63.225,260.8906 Q62.9906,261.1563 62.6156,261.1563 Q62.2719,261.1563 62.0688,260.9531 Q61.8656,260.7656 61.7563,260.25 Q61.7094,259.8906 61.5219,259.7031 Q61.1938,259.3281 60.5844,259.1094 Q59.975,258.8906 59.35,258.8906 Q58.5844,258.8906 57.9516,259.2188 Q57.3188,259.5469 56.8266,260.2969 Q56.3344,261.0469 56.3344,262.0781 L56.3344,263.1719 Q56.3344,264.4063 57.225,265.2266 Q58.1156,266.0469 59.7094,266.0469 Q60.6469,266.0469 61.3031,265.7969 Q61.6938,265.6406 62.1156,265.2031 Q62.3813,264.9375 62.5297,264.8594 Q62.6781,264.7813 62.8813,264.7813 Q63.2094,264.7813 63.4672,265.0391 Q63.725,265.2969 63.725,265.6406 Q63.725,265.9844 63.3813,266.3906 Q62.8813,266.9688 62.0844,267.2969 Q61.0063,267.75 59.7094,267.75 Q58.1938,267.75 56.9906,267.125 Q56.0063,266.625 55.3188,265.5547 Q54.6313,264.4844 54.6313,263.2031 L54.6313,262.0469 Q54.6313,260.7188 55.2484,259.5703 Q55.8656,258.4219 56.9594,257.8047 Q58.0531,257.1875 59.2875,257.1875 Q60.0219,257.1875 60.6703,257.3516 Q61.3188,257.5156 61.8656,257.875 Z " fill="#000000"/><text fill="#000000" font-family="sans-serif" font-size="14" lengthAdjust="spacing" textLength="82" x="77.9" y="267.7285">orders.Order</text><rect fill="#FFFFFF" height="17.0938" style="stroke:#181818;stroke-width:1.0;stroke-dasharray:2.0,2.0;" width="57" x="193.5" y="243"/><text fill="#000000" font-family="sans-serif" font-size="12" font-style="italic" lengthAdjust="spacing" textLength="55" x="194.5" y="256.457">3. &#1047;&#1072;&#1082;&#1072;&#1079;&#1099;</text><line style="stroke:#181818;stroke-width:0.5;" x1="23.5" x2="246.5" y1="278" y2="278"/><text fill="#000000" font-family="sans-serif" font-size="14" lengthAdjust="spacing" textLength="36" x="28.5" y="296.5332">&#1047;&#1072;&#1082;&#1072;&#1079;</text><line style="stroke:#181818;stroke-width:1.0;" x1="23.5" x2="246.5" y1="303.6094" y2="303.6094"/><rect fill="#F24D5C" height="6" style="stroke:#C82930;stroke-width:1.0;" width="6" x="30.5" y="314.9141"/><text fill="#000000" font-family="sans-serif" font-size="14" lengthAdjust="spacing" textLength="94" x="42.5" y="322.1426">id (AutoField) -</text><polygon fill="#4177AF" points="33.5,331.5234,29.5,337.5234,37.5,337.5234" style="stroke:#1963A0;stroke-width:1.0;"/><text fill="#000000" font-family="sans-serif" font-size="14" lengthAdjust="spacing" textLength="124" x="42.5" y="339.752">user (ForeignKey) -</text><ellipse cx="33.5" cy="353.1328" fill="#84BE84" rx="3" ry="3" style="stroke:#038048;stroke-width:1.0;"/><text fill="#000000" font-family="sans-serif" font-size="14" lengthAdjust="spacing" textLength="138" x="42.5" y="357.3613">comment (TextField) -</text><ellipse cx="33.5" cy="370.7422" fill="#84BE84" rx="3" ry="3" style="stroke:#038048;stroke-width:1.0;"/><text fill="#000000" font-family="sans-serif" font-size="14" lengthAdjust="spacing" textLength="133" x="42.5" y="374.9707">invoice (JSONField) -</text><polygon fill="#4177AF" points="33.5,384.3516,29.5,390.3516,37.5,390.3516" style="stroke:#1963A0;stroke-width:1.0;"/><text fill="#000000" font-family="sans-serif" font-size="14" lengthAdjust="spacing" textLength="147" x="42.5" y="392.5801">address (ForeignKey) -</text><ellipse cx="33.5" cy="405.9609" fill="#84BE84" rx="3" ry="3" style="stroke:#038048;stroke-width:1.0;"/><text fill="#000000" font-family="sans-serif" font-size="14" lengthAdjust="spacing" textLength="136" x="42.5" y="410.1895">status (IntegerField) -</text><ellipse cx="33.5" cy="423.5703" fill="#84BE84" rx="3" ry="3" style="stroke:#038048;stroke-width:1.0;"/><text fill="#000000" font-family="sans-serif" font-size="14" lengthAdjust="spacing" textLength="199" x="42.5" y="427.7988">date_created (DateTimeField) -</text><line style="stroke:#181818;stroke-width:1.0;" x1="23.5" x2="246.5" y1="434.875" y2="434.875"/></g><!--class OrderItem--><g id="elem_OrderItem"><rect codeLine="30" fill="#DEF4D6" height="144.0469" id="OrderItem" rx="2.5" ry="2.5" style="stroke:#181818;stroke-width:0.5;" width="203" x="37.5" y="42"/><ellipse cx="52.5" cy="58" fill="#ADD1B2" rx="11" ry="11" style="stroke:#181818;stroke-width:1.0;"/><path d="M55.2656,53.875 Q55.4219,53.6563 55.6094,53.5469 Q55.7969,53.4375 56.0156,53.4375 Q56.3906,53.4375 56.625,53.6953 Q56.8594,53.9531 56.8594,54.5625 L56.8594,56.0156 Q56.8594,56.625 56.625,56.8906 Q56.3906,57.1563 56.0156,57.1563 Q55.6719,57.1563 55.4688,56.9531 Q55.2656,56.7656 55.1563,56.25 Q55.1094,55.8906 54.9219,55.7031 Q54.5938,55.3281 53.9844,55.1094 Q53.375,54.8906 52.75,54.8906 Q51.9844,54.8906 51.3516,55.2188 Q50.7188,55.5469 50.2266,56.2969 Q49.7344,57.0469 49.7344,58.0781 L49.7344,59.1719 Q49.7344,60.4063 50.625,61.2266 Q51.5156,62.0469 53.1094,62.0469 Q54.0469,62.0469 54.7031,61.7969 Q55.0938,61.6406 55.5156,61.2031 Q55.7813,60.9375 55.9297,60.8594 Q56.0781,60.7813 56.2813,60.7813 Q56.6094,60.7813 56.8672,61.0391 Q57.125,61.2969 57.125,61.6406 Q57.125,61.9844 56.7813,62.3906 Q56.2813,62.9688 55.4844,63.2969 Q54.4063,63.75 53.1094,63.75 Q51.5938,63.75 50.3906,63.125 Q49.4063,62.625 48.7188,61.5547 Q48.0313,60.4844 48.0313,59.2031 L48.0313,58.0469 Q48.0313,56.7188 48.6484,55.5703 Q49.2656,54.4219 50.3594,53.8047 Q51.4531,53.1875 52.6875,53.1875 Q53.4219,53.1875 54.0703,53.3516 Q54.7188,53.5156 55.2656,53.875 Z " fill="#000000"/><text fill="#000000" font-family="sans-serif" font-size="14" lengthAdjust="spacing" textLength="108" x="66.5" y="63.7285">orders.OrderItem</text><rect fill="#FFFFFF" height="17.0938" style="stroke:#181818;stroke-width:1.0;stroke-dasharray:2.0,2.0;" width="57" x="186.5" y="39"/><text fill="#000000" font-family="sans-serif" font-size="12" font-style="italic" lengthAdjust="spacing" textLength="55" x="187.5" y="52.457">3. &#1047;&#1072;&#1082;&#1072;&#1079;&#1099;</text><line style="stroke:#181818;stroke-width:0.5;" x1="38.5" x2="239.5" y1="74" y2="74"/><text fill="#000000" font-family="sans-serif" font-size="14" lengthAdjust="spacing" textLength="102" x="43.5" y="92.5332">&#1055;&#1086;&#1079;&#1080;&#1094;&#1080;&#1103; &#1079;&#1072;&#1082;&#1072;&#1079;&#1072;</text><line style="stroke:#181818;stroke-width:1.0;" x1="38.5" x2="239.5" y1="99.6094" y2="99.6094"/><rect fill="#F24D5C" height="6" style="stroke:#C82930;stroke-width:1.0;" width="6" x="45.5" y="110.9141"/><text fill="#000000" font-family="sans-serif" font-size="14" lengthAdjust="spacing" textLength="94" x="57.5" y="118.1426">id (AutoField) -</text><polygon fill="#4177AF" points="48.5,127.5234,44.5,133.5234,52.5,133.5234" style="stroke:#1963A0;stroke-width:1.0;"/><text fill="#000000" font-family="sans-serif" font-size="14" lengthAdjust="spacing" textLength="130" x="57.5" y="135.752">order (ForeignKey) -</text><polygon fill="#4177AF" points="48.5,145.1328,44.5,151.1328,52.5,151.1328" style="stroke:#1963A0;stroke-width:1.0;"/><text fill="#000000" font-family="sans-serif" font-size="14" lengthAdjust="spacing" textLength="144" x="57.5" y="153.3613">product (ForeignKey) -</text><ellipse cx="48.5" cy="166.7422" fill="#84BE84" rx="3" ry="3" style="stroke:#038048;stroke-width:1.0;"/><text fill="#000000" font-family="sans-serif" font-size="14" lengthAdjust="spacing" textLength="133" x="57.5" y="170.9707">count (IntegerField) -</text><line style="stroke:#181818;stroke-width:1.0;" x1="38.5" x2="239.5" y1="178.0469" y2="178.0469"/></g><!--class User--><g id="elem_User"><rect fill="#F1F1F1" height="48" id="User" rx="2.5" ry="2.5" style="stroke:#181818;stroke-width:0.5;" width="61" x="561.5" y="320.5"/><ellipse cx="576.5" cy="336.5" fill="#ADD1B2" rx="11" ry="11" style="stroke:#181818;stroke-width:1.0;"/><path d="M579.2656,332.375 Q579.4219,332.1563 579.6094,332.0469 Q579.7969,331.9375 580.0156,331.9375 Q580.3906,331.9375 580.625,332.1953 Q580.8594,332.4531 580.8594,333.0625 L580.8594,334.5156 Q580.8594,335.125 580.625,335.3906 Q580.3906,335.6563 580.0156,335.6563 Q579.6719,335.6563 579.4688,335.4531 Q579.2656,335.2656 579.1563,334.75 Q579.1094,334.3906 578.9219,334.2031 Q578.5938,333.8281 577.9844,333.6094 Q577.375,333.3906 576.75,333.3906 Q575.9844,333.3906 575.3516,333.7188 Q574.7188,334.0469 574.2266,334.7969 Q573.7344,335.5469 573.7344,336.5781 L573.7344,337.6719 Q573.7344,338.9063 574.625,339.7266 Q575.5156,340.5469 577.1094,340.5469 Q578.0469,340.5469 578.7031,340.2969 Q579.0938,340.1406 579.5156,339.7031 Q579.7813,339.4375 579.9297,339.3594 Q580.0781,339.2813 580.2813,339.2813 Q580.6094,339.2813 580.8672,339.5391 Q581.125,339.7969 581.125,340.1406 Q581.125,340.4844 580.7813,340.8906 Q580.2813,341.4688 579.4844,341.7969 Q578.4063,342.25 577.1094,342.25 Q575.5938,342.25 574.3906,341.625 Q573.4063,341.125 572.7188,340.0547 Q572.0313,338.9844 572.0313,337.7031 L572.0313,336.5469 Q572.0313,335.2188 572.6484,334.0703 Q573.2656,332.9219 574.3594,332.3047 Q575.4531,331.6875 576.6875,331.6875 Q577.4219,331.6875 578.0703,331.8516 Q578.7188,332.0156 579.2656,332.375 Z " fill="#000000"/><text fill="#000000" font-family="sans-serif" font-size="14" lengthAdjust="spacing" textLength="29" x="590.5" y="342.2285">User</text><line style="stroke:#181818;stroke-width:0.5;" x1="562.5" x2="621.5" y1="352.5" y2="352.5"/><line style="stroke:#181818;stroke-width:0.5;" x1="562.5" x2="621.5" y1="360.5" y2="360.5"/></g><!--class Address--><g id="elem_Address"><rect fill="#F1F1F1" height="48" id="Address" rx="2.5" ry="2.5" style="stroke:#181818;stroke-width:0.5;" width="84" x="442" y="320.5"/><ellipse cx="457" cy="336.5" fill="#ADD1B2" rx="11" ry="11" style="stroke:#181818;stroke-width:1.0;"/><path d="M459.7656,332.375 Q459.9219,332.1563 460.1094,332.0469 Q460.2969,331.9375 460.5156,331.9375 Q460.8906,331.9375 461.125,332.1953 Q461.3594,332.4531 461.3594,333.0625 L461.3594,334.5156 Q461.3594,335.125 461.125,335.3906 Q460.8906,335.6563 460.5156,335.6563 Q460.1719,335.6563 459.9688,335.4531 Q459.7656,335.2656 459.6563,334.75 Q459.6094,334.3906 459.4219,334.2031 Q459.0938,333.8281 458.4844,333.6094 Q457.875,333.3906 457.25,333.3906 Q456.4844,333.3906 455.8516,333.7188 Q455.2188,334.0469 454.7266,334.7969 Q454.2344,335.5469 454.2344,336.5781 L454.2344,337.6719 Q454.2344,338.9063 455.125,339.7266 Q456.0156,340.5469 457.6094,340.5469 Q458.5469,340.5469 459.2031,340.2969 Q459.5938,340.1406 460.0156,339.7031 Q460.2813,339.4375 460.4297,339.3594 Q460.5781,339.2813 460.7813,339.2813 Q461.1094,339.2813 461.3672,339.5391 Q461.625,339.7969 461.625,340.1406 Q461.625,340.4844 461.2813,340.8906 Q460.7813,341.4688 459.9844,341.7969 Q458.9063,342.25 457.6094,342.25 Q456.0938,342.25 454.8906,341.625 Q453.9063,341.125 453.2188,340.0547 Q452.5313,338.9844 452.5313,337.7031 L452.5313,336.5469 Q452.5313,335.2188 453.1484,334.0703 Q453.7656,332.9219 454.8594,332.3047 Q455.9531,331.6875 457.1875,331.6875 Q457.9219,331.6875 458.5703,331.8516 Q459.2188,332.0156 459.7656,332.375 Z " fill="#000000"/><text fill="#000000" font-family="sans-serif" font-size="14" lengthAdjust="spacing" textLength="52" x="471" y="342.2285">Address</text><line style="stroke:#181818;stroke-width:0.5;" x1="443" x2="525" y1="352.5" y2="352.5"/><line style="stroke:#181818;stroke-width:0.5;" x1="443" x2="525" y1="360.5" y2="360.5"/></g><!--class Product--><g id="elem_Product"><rect fill="#F1F1F1" height="48" id="Product" rx="2.5" ry="2.5" style="stroke:#181818;stroke-width:0.5;" width="81" x="304.5" y="320.5"/><ellipse cx="319.5" cy="336.5" fill="#ADD1B2" rx="11" ry="11" style="stroke:#181818;stroke-width:1.0;"/><path d="M322.2656,332.375 Q322.4219,332.1563 322.6094,332.0469 Q322.7969,331.9375 323.0156,331.9375 Q323.3906,331.9375 323.625,332.1953 Q323.8594,332.4531 323.8594,333.0625 L323.8594,334.5156 Q323.8594,335.125 323.625,335.3906 Q323.3906,335.6563 323.0156,335.6563 Q322.6719,335.6563 322.4688,335.4531 Q322.2656,335.2656 322.1563,334.75 Q322.1094,334.3906 321.9219,334.2031 Q321.5938,333.8281 320.9844,333.6094 Q320.375,333.3906 319.75,333.3906 Q318.9844,333.3906 318.3516,333.7188 Q317.7188,334.0469 317.2266,334.7969 Q316.7344,335.5469 316.7344,336.5781 L316.7344,337.6719 Q316.7344,338.9063 317.625,339.7266 Q318.5156,340.5469 320.1094,340.5469 Q321.0469,340.5469 321.7031,340.2969 Q322.0938,340.1406 322.5156,339.7031 Q322.7813,339.4375 322.9297,339.3594 Q323.0781,339.2813 323.2813,339.2813 Q323.6094,339.2813 323.8672,339.5391 Q324.125,339.7969 324.125,340.1406 Q324.125,340.4844 323.7813,340.8906 Q323.2813,341.4688 322.4844,341.7969 Q321.4063,342.25 320.1094,342.25 Q318.5938,342.25 317.3906,341.625 Q316.4063,341.125 315.7188,340.0547 Q315.0313,338.9844 315.0313,337.7031 L315.0313,336.5469 Q315.0313,335.2188 315.6484,334.0703 Q316.2656,332.9219 317.3594,332.3047 Q318.4531,331.6875 319.6875,331.6875 Q320.4219,331.6875 321.0703,331.8516 Q321.7188,332.0156 322.2656,332.375 Z " fill="#000000"/><text fill="#000000" font-family="sans-serif" font-size="14" lengthAdjust="spacing" textLength="49" x="333.5" y="342.2285">Product</text><line style="stroke:#181818;stroke-width:0.5;" x1="305.5" x2="384.5" y1="352.5" y2="352.5"/><line style="stroke:#181818;stroke-width:0.5;" x1="305.5" x2="384.5" y1="360.5" y2="360.5"/></g><!--class DESCRIPTION--><g id="elem_DESCRIPTION"><rect codeLine="2" fill="#FFFFFF" height="142.4375" id="DESCRIPTION" rx="2.5" ry="2.5" style="stroke:#181818;stroke-width:0.5;" width="270" x="280" y="43"/><ellipse cx="310.75" cy="59" fill="#ADD1B2" rx="11" ry="11" style="stroke:#181818;stroke-width:1.0;"/><path d="M313.5156,54.875 Q313.6719,54.6563 313.8594,54.5469 Q314.0469,54.4375 314.2656,54.4375 Q314.6406,54.4375 314.875,54.6953 Q315.1094,54.9531 315.1094,55.5625 L315.1094,57.0156 Q315.1094,57.625 314.875,57.8906 Q314.6406,58.1563 314.2656,58.1563 Q313.9219,58.1563 313.7188,57.9531 Q313.5156,57.7656 313.4063,57.25 Q313.3594,56.8906 313.1719,56.7031 Q312.8438,56.3281 312.2344,56.1094 Q311.625,55.8906 311,55.8906 Q310.2344,55.8906 309.6016,56.2188 Q308.9688,56.5469 308.4766,57.2969 Q307.9844,58.0469 307.9844,59.0781 L307.9844,60.1719 Q307.9844,61.4063 308.875,62.2266 Q309.7656,63.0469 311.3594,63.0469 Q312.2969,63.0469 312.9531,62.7969 Q313.3438,62.6406 313.7656,62.2031 Q314.0313,61.9375 314.1797,61.8594 Q314.3281,61.7813 314.5313,61.7813 Q314.8594,61.7813 315.1172,62.0391 Q315.375,62.2969 315.375,62.6406 Q315.375,62.9844 315.0313,63.3906 Q314.5313,63.9688 313.7344,64.2969 Q312.6563,64.75 311.3594,64.75 Q309.8438,64.75 308.6406,64.125 Q307.6563,63.625 306.9688,62.5547 Q306.2813,61.4844 306.2813,60.2031 L306.2813,59.0469 Q306.2813,57.7188 306.8984,56.5703 Q307.5156,55.4219 308.6094,54.8047 Q309.7031,54.1875 310.9375,54.1875 Q311.6719,54.1875 312.3203,54.3516 Q312.9688,54.5156 313.5156,54.875 Z " fill="#000000"/><text fill="#000000" font-family="sans-serif" font-size="14" lengthAdjust="spacing" textLength="203" x="328.25" y="64.7285">Explanation of the symbols used</text><line style="stroke:#181818;stroke-width:0.5;" x1="281" x2="549" y1="75" y2="75"/><rect fill="#F24D5C" height="6" style="stroke:#C82930;stroke-width:1.0;" width="6" x="288" y="86.3047"/><text fill="#000000" font-family="sans-serif" font-size="14" lengthAdjust="spacing" textLength="135" x="300" y="93.5332">AutoField (identifiers)</text><line style="stroke:#181818;stroke-width:1.0;stroke-dasharray:1.0,2.0;" x1="281" x2="549" y1="100.6094" y2="100.6094"/><ellipse cx="291" cy="114.9141" fill="#84BE84" rx="3" ry="3" style="stroke:#038048;stroke-width:1.0;"/><text fill="#000000" font-family="sans-serif" font-size="14" lengthAdjust="spacing" textLength="148" x="300" y="119.1426">Regular field (anything)</text><line style="stroke:#181818;stroke-width:1.0;stroke-dasharray:1.0,2.0;" x1="281" x2="549" y1="126.2188" y2="126.2188"/><polygon fill="#FFFF44" points="291,135.5234,295,139.5234,291,143.5234,287,139.5234" style="stroke:#B38D22;stroke-width:1.0;"/><text fill="#000000" font-family="sans-serif" font-size="14" lengthAdjust="spacing" textLength="172" x="300" y="144.752">ForeignKey (ManyToMany)</text><line style="stroke:#181818;stroke-width:1.0;stroke-dasharray:1.0,2.0;" x1="281" x2="549" y1="151.8281" y2="151.8281"/><polygon fill="#4177AF" points="291,162.1328,287,168.1328,295,168.1328" style="stroke:#1963A0;stroke-width:1.0;"/><text fill="#000000" font-family="sans-serif" font-size="14" lengthAdjust="spacing" textLength="244" x="300" y="170.3613">ForeignKey (OneToOne, OneToMany)</text><line style="stroke:#181818;stroke-width:1.0;" x1="281" x2="549" y1="177.4375" y2="177.4375"/></g><!--class status--><g id="elem_status"><rect codeLine="43" fill="#EEEEEE" height="118.4375" id="status" rx="2.5" ry="2.5" style="stroke:#181818;stroke-width:0.5;" width="153" x="657.5" y="285.5"/><ellipse cx="687.35" cy="301.5" fill="#EB937F" rx="11" ry="11" style="stroke:#181818;stroke-width:1.0;"/><path d="M686.2094,302.2969 L686.2094,304.7969 L690.5375,304.7969 L690.5375,303.875 Q690.5375,303.2656 690.7797,303 Q691.0219,302.7344 691.3969,302.7344 Q691.7719,302.7344 692.0063,303 Q692.2406,303.2656 692.2406,303.875 L692.2406,306.5 L684.2406,306.5 Q683.6156,306.5 683.3578,306.2656 Q683.1,306.0313 683.1,305.6406 Q683.1,305.2656 683.3656,305.0313 Q683.6313,304.7969 684.2406,304.7969 L684.5063,304.7969 L684.5063,298.1406 L684.2406,298.1406 Q683.6156,298.1406 683.3578,297.9063 Q683.1,297.6719 683.1,297.2813 Q683.1,296.9063 683.3578,296.6719 Q683.6156,296.4375 684.2406,296.4375 L691.8656,296.4375 L691.8656,299.0313 Q691.8656,299.6406 691.6391,299.8984 Q691.4125,300.1563 691.0219,300.1563 Q690.6469,300.1563 690.4125,299.8984 Q690.1781,299.6406 690.1781,299.0313 L690.1781,298.1406 L686.2094,298.1406 L686.2094,300.5938 L687.6938,300.5938 Q687.6938,299.9375 687.8188,299.75 Q688.0844,299.3438 688.5531,299.3438 Q688.9281,299.3438 689.1625,299.6016 Q689.3969,299.8594 689.3969,300.4688 L689.3969,302.4375 Q689.3969,302.9844 689.2719,303.1719 Q689.0063,303.5625 688.5531,303.5625 Q688.0844,303.5625 687.8188,303.1563 Q687.6938,302.9688 687.6938,302.2969 L686.2094,302.2969 Z " fill="#000000"/><text fill="#000000" font-family="sans-serif" font-size="14" lengthAdjust="spacing" textLength="38" x="704.65" y="307.2285">status</text><rect fill="#FFFFFF" height="17.0938" style="stroke:#181818;stroke-width:1.0;stroke-dasharray:2.0,2.0;" width="44" x="769.5" y="282.5"/><text fill="#000000" font-family="sans-serif" font-size="12" font-style="italic" lengthAdjust="spacing" textLength="42" x="770.5" y="295.957">choices</text><line style="stroke:#181818;stroke-width:0.5;" x1="658.5" x2="809.5" y1="317.5" y2="317.5"/><line style="stroke:#181818;stroke-width:0.5;" x1="658.5" x2="809.5" y1="325.5" y2="325.5"/><ellipse cx="668.5" cy="339.8047" fill="#84BE84" rx="3" ry="3" style="stroke:#038048;stroke-width:1.0;"/><text fill="#000000" font-family="sans-serif" font-size="14" lengthAdjust="spacing" textLength="95" x="677.5" y="344.0332">1 - (1, '&#1053;&#1086;&#1074;&#1099;&#1081;')</text><ellipse cx="668.5" cy="357.4141" fill="#84BE84" rx="3" ry="3" style="stroke:#038048;stroke-width:1.0;"/><text fill="#000000" font-family="sans-serif" font-size="14" lengthAdjust="spacing" textLength="101" x="677.5" y="361.6426">2 - (2, '&#1057;&#1086;&#1079;&#1076;&#1072;&#1085;')</text><ellipse cx="668.5" cy="375.0234" fill="#84BE84" rx="3" ry="3" style="stroke:#038048;stroke-width:1.0;"/><text fill="#000000" font-family="sans-serif" font-size="14" lengthAdjust="spacing" textLength="127" x="677.5" y="379.252">10 - (10, '&#1054;&#1087;&#1083;&#1072;&#1095;&#1077;&#1085;')</text><ellipse cx="668.5" cy="392.6328" fill="#84BE84" rx="3" ry="3" style="stroke:#038048;stroke-width:1.0;"/><text fill="#000000" font-family="sans-serif" font-size="14" lengthAdjust="spacing" textLength="113" x="677.5" y="396.8613">4 - (4, '&#1054;&#1090;&#1084;&#1077;&#1085;&#1105;&#1085;')</text></g><!--reverse link Order to User--><g id="link_Order_User"><path codeLine="25" d="M255.2583,239.4563 C274.2583,227.1763 284.59,223 305.5,216 C352.07,200.42 483.91,191.54 526.5,216 C564.39,237.76 581.06,289.56 587.83,320.34 " fill="none" id="Order-backto-User" style="stroke:#181818;stroke-width:1.0;"/><polygon fill="#181818" points="245.18,245.97,252.3904,246.0726,255.2583,239.4563,248.0479,239.3537,245.18,245.97" style="stroke:#181818;stroke-width:1.0;"/></g><!--reverse link Order to Address--><g id="link_Order_Address"><path codeLine="26" d="M255.2583,239.4563 C274.2583,227.1763 284.59,223 305.5,216 C338.8,204.86 352.98,200.54 384.5,216 C428.71,237.68 458.88,289.51 473.61,320.31 " fill="none" id="Order-backto-Address" style="stroke:#181818;stroke-width:1.0;"/><polygon fill="#181818" points="245.18,245.97,252.3904,246.0726,255.2583,239.4563,248.0479,239.3537,245.18,245.97" style="stroke:#181818;stroke-width:1.0;"/></g><!--link Order to status--><g id="link_Order_status"><path codeLine="27" d="M245.18,245.97 C264.18,233.69 284.59,223 305.5,216 C372.09,193.72 557.55,186.99 621.5,216 C653.36,230.45 679.75,258.88 698.95,285.34 " fill="none" id="Order-status" style="stroke:#181818;stroke-width:1.0;stroke-dasharray:7.0,7.0;"/></g><!--reverse link OrderItem to Order--><g id="link_OrderItem_Order"><path codeLine="39" d="M137.5501,198.0482 C137.2201,216.9082 137.06,225.62 136.71,245.64 " fill="none" id="OrderItem-backto-Order" style="stroke:#181818;stroke-width:1.0;"/><polygon fill="#181818" points="137.76,186.05,133.6556,191.9791,137.5501,198.0482,141.6544,192.1191,137.76,186.05" style="stroke:#181818;stroke-width:1.0;"/></g><!--reverse link OrderItem to Product--><g id="link_OrderItem_Product"><path codeLine="40" d="M216.9512,194.9246 C235.2212,214.0846 246.44,226.28 264,246 C286.1,270.82 310.31,300.28 326.45,320.27 " fill="none" id="OrderItem-backto-Product" style="stroke:#181818;stroke-width:1.0;"/><polygon fill="#181818" points="208.67,186.24,209.9157,193.3427,216.9512,194.9246,215.7055,187.8219,208.67,186.24" style="stroke:#181818;stroke-width:1.0;"/></g><!--SRC=[ZPBDRjD058NtVeghP56dgQscHAmgf8ewKa0qLMlMo7Xkd97icMfcZ1fLxO85NNI1MB42n1j425J-UONn6p4UEmqE1dNXcP7FDzVtd6i0W3YDf8HES7gIHYnIb3FWKr0p13dFdl9KGYwHT22Ii1yStpyQ7uRZoG5qHwCHd3cc07Ymboi-efWIS2b1fkYKef0zg_g-tVfmX4cUHWAc5HYnkPfHbZIeBeouG9gmXpW7zv5XGbwk3UYY0KqOXjmiMs1FAzhpd7F7gUrnGKn7_gJSOFUE3_grNkYlvhakhkvPTmsaIt0w97ThXojuMRdoJOsF6-yzyEhsJ602t5MJIwKFCSyoam-u8Pwgngq-KFQCqnZ1VN0yELYh614YqFXeBIfLf7AZZPd21CLQMH8fV18BD9lfTjzi8Ssm0Tca6lOtFK6JcVAi5Ua_Dkj_WRsgloRZBvcgGQTr66E5sIq6Oh6reRpJF_Mr_boyCCzBCCVwlbxSQagsV5kY5t0YECbZzQyPvkK4szB-AqZRzgRdDRoq4_KtfNzO7KnSoF8CElLuT-DP-Nl8AflwPJS8WhEwhu6nwWwsO4E_CS5yAAxqburUhUsKsawflRUXVJGv_RXH1zlswdQflzM_z3UzA2xrfp-8OGaChLuyrzzBhNXbzNFdDm00]--></g></svg>