<?xml version="1.0" encoding="us-ascii" standalone="no"?><svg xmlns="http://www.w3.org/2000/svg" xmlns:xlink="http://www.w3.org/1999/xlink" contentStyleType="text/css" height="562px" preserveAspectRatio="none" style="width:1058px;height:562px;background:#FFFFFF;" version="1.1" viewBox="0 0 1058 562" width="1058px" zoomAndPan="magnify"><defs/><g><!--cluster products--><g id="cluster_products"><path d="M8.5,6 L72.5,6 A3.75,3.75 0 0 1 75,8.5 L82,29.6094 L759.5,29.6094 A2.5,2.5 0 0 1 762,32.1094 L762,428.5 A2.5,2.5 0 0 1 759.5,431 L8.5,431 A2.5,2.5 0 0 1 6,428.5 L6,8.5 A2.5,2.5 0 0 1 8.5,6 " fill="none" style="stroke:#000000;stroke-width:1.5;"/><line style="stroke:#000000;stroke-width:1.5;" x1="6" x2="82" y1="29.6094" y2="29.6094"/><text fill="#000000" font-family="sans-serif" font-size="14" font-weight="bold" lengthAdjust="spacing" textLength="63" x="10" y="22.5332">products</text></g><!--cluster common--><g id="cluster_common"><path d="M75.5,455 L135.5,455 A3.75,3.75 0 0 1 138,457.5 L145,478.6094 L695.5,478.6094 A2.5,2.5 0 0 1 698,481.1094 L698,552.5 A2.5,2.5 0 0 1 695.5,555 L75.5,555 A2.5,2.5 0 0 1 73,552.5 L73,457.5 A2.5,2.5 0 0 1 75.5,455 " fill="none" style="stroke:#000000;stroke-width:1.5;"/><line style="stroke:#000000;stroke-width:1.5;" x1="73" x2="145" y1="478.6094" y2="478.6094"/><text fill="#000000" font-family="sans-serif" font-size="14" font-weight="bold" lengthAdjust="spacing" textLength="59" x="77" y="471.5332">common</text></g><!--class Category--><g id="elem_Category"><rect codeLine="14" fill="#E7F4D6" height="161.6563" id="Category" rx="2.5" ry="2.5" style="stroke:#181818;stroke-width:0.5;" width="213" x="22.5" y="147.5"/><ellipse cx="37.5" cy="163.5" fill="#ADD1B2" rx="11" ry="11" style="stroke:#181818;stroke-width:1.0;"/><path d="M40.2656,159.375 Q40.4219,159.1563 40.6094,159.0469 Q40.7969,158.9375 41.0156,158.9375 Q41.3906,158.9375 41.625,159.1953 Q41.8594,159.4531 41.8594,160.0625 L41.8594,161.5156 Q41.8594,162.125 41.625,162.3906 Q41.3906,162.6563 41.0156,162.6563 Q40.6719,162.6563 40.4688,162.4531 Q40.2656,162.2656 40.1563,161.75 Q40.1094,161.3906 39.9219,161.2031 Q39.5938,160.8281 38.9844,160.6094 Q38.375,160.3906 37.75,160.3906 Q36.9844,160.3906 36.3516,160.7188 Q35.7188,161.0469 35.2266,161.7969 Q34.7344,162.5469 34.7344,163.5781 L34.7344,164.6719 Q34.7344,165.9063 35.625,166.7266 Q36.5156,167.5469 38.1094,167.5469 Q39.0469,167.5469 39.7031,167.2969 Q40.0938,167.1406 40.5156,166.7031 Q40.7813,166.4375 40.9297,166.3594 Q41.0781,166.2813 41.2813,166.2813 Q41.6094,166.2813 41.8672,166.5391 Q42.125,166.7969 42.125,167.1406 Q42.125,167.4844 41.7813,167.8906 Q41.2813,168.4688 40.4844,168.7969 Q39.4063,169.25 38.1094,169.25 Q36.5938,169.25 35.3906,168.625 Q34.4063,168.125 33.7188,167.0547 Q33.0313,165.9844 33.0313,164.7031 L33.0313,163.5469 Q33.0313,162.2188 33.6484,161.0703 Q34.2656,159.9219 35.3594,159.3047 Q36.4531,158.6875 37.6875,158.6875 Q38.4219,158.6875 39.0703,158.8516 Q39.7188,159.0156 40.2656,159.375 Z " fill="#000000"/><text fill="#000000" font-family="sans-serif" font-size="14" lengthAdjust="spacing" textLength="117" x="51.5" y="169.2285">products.Category</text><rect fill="#FFFFFF" height="17.0938" style="stroke:#181818;stroke-width:1.0;stroke-dasharray:2.0,2.0;" width="58" x="180.5" y="144.5"/><text fill="#000000" font-family="sans-serif" font-size="12" font-style="italic" lengthAdjust="spacing" textLength="56" x="181.5" y="157.957">2. &#1058;&#1086;&#1074;&#1072;&#1088;&#1099;</text><line style="stroke:#181818;stroke-width:0.5;" x1="23.5" x2="234.5" y1="179.5" y2="179.5"/><text fill="#000000" font-family="sans-serif" font-size="14" lengthAdjust="spacing" textLength="118" x="28.5" y="198.0332">&#1050;&#1072;&#1090;&#1077;&#1075;&#1086;&#1088;&#1080;&#1103; &#1090;&#1086;&#1074;&#1072;&#1088;&#1072;</text><line style="stroke:#181818;stroke-width:1.0;" x1="23.5" x2="234.5" y1="205.1094" y2="205.1094"/><rect fill="#F24D5C" height="6" style="stroke:#C82930;stroke-width:1.0;" width="6" x="30.5" y="216.4141"/><text fill="#000000" font-family="sans-serif" font-size="14" lengthAdjust="spacing" textLength="94" x="42.5" y="223.6426">id (AutoField) -</text><ellipse cx="33.5" cy="237.0234" fill="#84BE84" rx="3" ry="3" style="stroke:#038048;stroke-width:1.0;"/><text fill="#000000" font-family="sans-serif" font-size="14" lengthAdjust="spacing" textLength="120" x="42.5" y="241.252">name (CharField) -</text><ellipse cx="33.5" cy="254.6328" fill="#84BE84" rx="3" ry="3" style="stroke:#038048;stroke-width:1.0;"/><text fill="#000000" font-family="sans-serif" font-size="14" lengthAdjust="spacing" textLength="185" x="42.5" y="258.8613">is_published (BooleanField) -</text><ellipse cx="33.5" cy="272.2422" fill="#84BE84" rx="3" ry="3" style="stroke:#038048;stroke-width:1.0;"/><text fill="#000000" font-family="sans-serif" font-size="14" lengthAdjust="spacing" textLength="154" x="42.5" y="276.4707">is_main (BooleanField) -</text><ellipse cx="33.5" cy="289.8516" fill="#84BE84" rx="3" ry="3" style="stroke:#038048;stroke-width:1.0;"/><text fill="#000000" font-family="sans-serif" font-size="14" lengthAdjust="spacing" textLength="132" x="42.5" y="294.0801">order (IntegerField) -</text><line style="stroke:#181818;stroke-width:1.0;" x1="23.5" x2="234.5" y1="301.1563" y2="301.1563"/></g><!--class Picture--><g id="elem_Picture"><rect codeLine="26" fill="#E7F4D6" height="179.2656" id="Picture" rx="2.5" ry="2.5" style="stroke:#181818;stroke-width:0.5;" width="211" x="534.5" y="139"/><ellipse cx="554.9" cy="155" fill="#ADD1B2" rx="11" ry="11" style="stroke:#181818;stroke-width:1.0;"/><path d="M557.6656,150.875 Q557.8219,150.6563 558.0094,150.5469 Q558.1969,150.4375 558.4156,150.4375 Q558.7906,150.4375 559.025,150.6953 Q559.2594,150.9531 559.2594,151.5625 L559.2594,153.0156 Q559.2594,153.625 559.025,153.8906 Q558.7906,154.1563 558.4156,154.1563 Q558.0719,154.1563 557.8688,153.9531 Q557.6656,153.7656 557.5563,153.25 Q557.5094,152.8906 557.3219,152.7031 Q556.9938,152.3281 556.3844,152.1094 Q555.775,151.8906 555.15,151.8906 Q554.3844,151.8906 553.7516,152.2188 Q553.1188,152.5469 552.6266,153.2969 Q552.1344,154.0469 552.1344,155.0781 L552.1344,156.1719 Q552.1344,157.4063 553.025,158.2266 Q553.9156,159.0469 555.5094,159.0469 Q556.4469,159.0469 557.1031,158.7969 Q557.4938,158.6406 557.9156,158.2031 Q558.1813,157.9375 558.3297,157.8594 Q558.4781,157.7813 558.6813,157.7813 Q559.0094,157.7813 559.2672,158.0391 Q559.525,158.2969 559.525,158.6406 Q559.525,158.9844 559.1813,159.3906 Q558.6813,159.9688 557.8844,160.2969 Q556.8063,160.75 555.5094,160.75 Q553.9938,160.75 552.7906,160.125 Q551.8063,159.625 551.1188,158.5547 Q550.4313,157.4844 550.4313,156.2031 L550.4313,155.0469 Q550.4313,153.7188 551.0484,152.5703 Q551.6656,151.4219 552.7594,150.8047 Q553.8531,150.1875 555.0875,150.1875 Q555.8219,150.1875 556.4703,150.3516 Q557.1188,150.5156 557.6656,150.875 Z " fill="#000000"/><text fill="#000000" font-family="sans-serif" font-size="14" lengthAdjust="spacing" textLength="103" x="570.1" y="160.7285">products.Picture</text><rect fill="#FFFFFF" height="17.0938" style="stroke:#181818;stroke-width:1.0;stroke-dasharray:2.0,2.0;" width="58" x="690.5" y="136"/><text fill="#000000" font-family="sans-serif" font-size="12" font-style="italic" lengthAdjust="spacing" textLength="56" x="691.5" y="149.457">2. &#1058;&#1086;&#1074;&#1072;&#1088;&#1099;</text><line style="stroke:#181818;stroke-width:0.5;" x1="535.5" x2="744.5" y1="171" y2="171"/><text fill="#000000" font-family="sans-serif" font-size="14" lengthAdjust="spacing" textLength="139" x="540.5" y="189.5332">&#1048;&#1079;&#1086;&#1073;&#1088;&#1072;&#1078;&#1077;&#1085;&#1080;&#1077; &#1090;&#1086;&#1074;&#1072;&#1088;&#1072;</text><line style="stroke:#181818;stroke-width:1.0;" x1="535.5" x2="744.5" y1="196.6094" y2="196.6094"/><rect fill="#F24D5C" height="6" style="stroke:#C82930;stroke-width:1.0;" width="6" x="542.5" y="207.9141"/><text fill="#000000" font-family="sans-serif" font-size="14" lengthAdjust="spacing" textLength="94" x="554.5" y="215.1426">id (AutoField) -</text><polygon fill="#4177AF" points="545.5,224.5234,541.5,230.5234,549.5,230.5234" style="stroke:#1963A0;stroke-width:1.0;"/><text fill="#000000" font-family="sans-serif" font-size="14" lengthAdjust="spacing" textLength="144" x="554.5" y="232.752">product (ForeignKey) -</text><ellipse cx="545.5" cy="246.1328" fill="#84BE84" rx="3" ry="3" style="stroke:#038048;stroke-width:1.0;"/><text fill="#000000" font-family="sans-serif" font-size="14" lengthAdjust="spacing" textLength="130" x="554.5" y="250.3613">image (ImageField) -</text><ellipse cx="545.5" cy="263.7422" fill="#84BE84" rx="3" ry="3" style="stroke:#038048;stroke-width:1.0;"/><text fill="#000000" font-family="sans-serif" font-size="14" lengthAdjust="spacing" textLength="185" x="554.5" y="267.9707">is_published (BooleanField) -</text><ellipse cx="545.5" cy="281.3516" fill="#84BE84" rx="3" ry="3" style="stroke:#038048;stroke-width:1.0;"/><text fill="#000000" font-family="sans-serif" font-size="14" lengthAdjust="spacing" textLength="181" x="554.5" y="285.5801">order (PositiveIntegerField) -</text><ellipse cx="545.5" cy="298.9609" fill="#84BE84" rx="3" ry="3" style="stroke:#038048;stroke-width:1.0;"/><text fill="#000000" font-family="sans-serif" font-size="14" lengthAdjust="spacing" textLength="154" x="554.5" y="303.1895">is_main (BooleanField) -</text><line style="stroke:#181818;stroke-width:1.0;" x1="535.5" x2="744.5" y1="310.2656" y2="310.2656"/></g><!--class Product--><g id="elem_Product"><rect codeLine="40" fill="#E7F4D6" height="372.9688" id="Product" rx="2.5" ry="2.5" style="stroke:#181818;stroke-width:0.5;" width="229" x="270.5" y="42"/><ellipse cx="296.75" cy="58" fill="#ADD1B2" rx="11" ry="11" style="stroke:#181818;stroke-width:1.0;"/><path d="M299.5156,53.875 Q299.6719,53.6563 299.8594,53.5469 Q300.0469,53.4375 300.2656,53.4375 Q300.6406,53.4375 300.875,53.6953 Q301.1094,53.9531 301.1094,54.5625 L301.1094,56.0156 Q301.1094,56.625 300.875,56.8906 Q300.6406,57.1563 300.2656,57.1563 Q299.9219,57.1563 299.7188,56.9531 Q299.5156,56.7656 299.4063,56.25 Q299.3594,55.8906 299.1719,55.7031 Q298.8438,55.3281 298.2344,55.1094 Q297.625,54.8906 297,54.8906 Q296.2344,54.8906 295.6016,55.2188 Q294.9688,55.5469 294.4766,56.2969 Q293.9844,57.0469 293.9844,58.0781 L293.9844,59.1719 Q293.9844,60.4063 294.875,61.2266 Q295.7656,62.0469 297.3594,62.0469 Q298.2969,62.0469 298.9531,61.7969 Q299.3438,61.6406 299.7656,61.2031 Q300.0313,60.9375 300.1797,60.8594 Q300.3281,60.7813 300.5313,60.7813 Q300.8594,60.7813 301.1172,61.0391 Q301.375,61.2969 301.375,61.6406 Q301.375,61.9844 301.0313,62.3906 Q300.5313,62.9688 299.7344,63.2969 Q298.6563,63.75 297.3594,63.75 Q295.8438,63.75 294.6406,63.125 Q293.6563,62.625 292.9688,61.5547 Q292.2813,60.4844 292.2813,59.2031 L292.2813,58.0469 Q292.2813,56.7188 292.8984,55.5703 Q293.5156,54.4219 294.6094,53.8047 Q295.7031,53.1875 296.9375,53.1875 Q297.6719,53.1875 298.3203,53.3516 Q298.9688,53.5156 299.5156,53.875 Z " fill="#000000"/><text fill="#000000" font-family="sans-serif" font-size="14" lengthAdjust="spacing" textLength="108" x="313.25" y="63.7285">products.Product</text><rect fill="#FFFFFF" height="17.0938" style="stroke:#181818;stroke-width:1.0;stroke-dasharray:2.0,2.0;" width="58" x="444.5" y="39"/><text fill="#000000" font-family="sans-serif" font-size="12" font-style="italic" lengthAdjust="spacing" textLength="56" x="445.5" y="52.457">2. &#1058;&#1086;&#1074;&#1072;&#1088;&#1099;</text><line style="stroke:#181818;stroke-width:0.5;" x1="271.5" x2="498.5" y1="74" y2="74"/><text fill="#000000" font-family="sans-serif" font-size="14" lengthAdjust="spacing" textLength="40" x="276.5" y="92.5332">&#1058;&#1086;&#1074;&#1072;&#1088;</text><line style="stroke:#181818;stroke-width:1.0;" x1="271.5" x2="498.5" y1="99.6094" y2="99.6094"/><rect fill="#F24D5C" height="6" style="stroke:#C82930;stroke-width:1.0;" width="6" x="278.5" y="110.9141"/><text fill="#000000" font-family="sans-serif" font-size="14" lengthAdjust="spacing" textLength="94" x="290.5" y="118.1426">id (AutoField) -</text><ellipse cx="281.5" cy="131.5234" fill="#84BE84" rx="3" ry="3" style="stroke:#038048;stroke-width:1.0;"/><text fill="#000000" font-family="sans-serif" font-size="14" lengthAdjust="spacing" textLength="120" x="290.5" y="135.752">name (CharField) -</text><ellipse cx="281.5" cy="149.1328" fill="#84BE84" rx="3" ry="3" style="stroke:#038048;stroke-width:1.0;"/><text fill="#000000" font-family="sans-serif" font-size="14" lengthAdjust="spacing" textLength="135" x="290.5" y="153.3613">price (DecimalField) -</text><ellipse cx="281.5" cy="166.7422" fill="#84BE84" rx="3" ry="3" style="stroke:#038048;stroke-width:1.0;"/><text fill="#000000" font-family="sans-serif" font-size="14" lengthAdjust="spacing" textLength="190" x="290.5" y="170.9707">short_description (TextField) -</text><ellipse cx="281.5" cy="184.3516" fill="#84BE84" rx="3" ry="3" style="stroke:#038048;stroke-width:1.0;"/><text fill="#000000" font-family="sans-serif" font-size="14" lengthAdjust="spacing" textLength="150" x="290.5" y="188.5801">description (TextField) -</text><polygon fill="#4177AF" points="281.5,197.9609,277.5,203.9609,285.5,203.9609" style="stroke:#1963A0;stroke-width:1.0;"/><text fill="#000000" font-family="sans-serif" font-size="14" lengthAdjust="spacing" textLength="151" x="290.5" y="206.1895">category (ForeignKey) -</text><polygon fill="#4177AF" points="281.5,215.5703,277.5,221.5703,285.5,221.5703" style="stroke:#1963A0;stroke-width:1.0;"/><text fill="#000000" font-family="sans-serif" font-size="14" lengthAdjust="spacing" textLength="133" x="290.5" y="223.7988">brand (ForeignKey) -</text><polygon fill="#4177AF" points="281.5,233.1797,277.5,239.1797,285.5,239.1797" style="stroke:#1963A0;stroke-width:1.0;"/><text fill="#000000" font-family="sans-serif" font-size="14" lengthAdjust="spacing" textLength="154" x="290.5" y="241.4082">algorithm (ForeignKey) -</text><polygon fill="#4177AF" points="281.5,250.7891,277.5,256.7891,285.5,256.7891" style="stroke:#1963A0;stroke-width:1.0;"/><text fill="#000000" font-family="sans-serif" font-size="14" lengthAdjust="spacing" textLength="200" x="290.5" y="259.0176">currency_mining (ForeignKey) -</text><polygon fill="#4177AF" points="281.5,268.3984,277.5,274.3984,285.5,274.3984" style="stroke:#1963A0;stroke-width:1.0;"/><text fill="#000000" font-family="sans-serif" font-size="14" lengthAdjust="spacing" textLength="152" x="290.5" y="276.627">hashrate (ForeignKey) -</text><polygon fill="#4177AF" points="281.5,286.0078,277.5,292.0078,285.5,292.0078" style="stroke:#1963A0;stroke-width:1.0;"/><text fill="#000000" font-family="sans-serif" font-size="14" lengthAdjust="spacing" textLength="134" x="290.5" y="294.2363">power (ForeignKey) -</text><ellipse cx="281.5" cy="307.6172" fill="#84BE84" rx="3" ry="3" style="stroke:#038048;stroke-width:1.0;"/><text fill="#000000" font-family="sans-serif" font-size="14" lengthAdjust="spacing" textLength="185" x="290.5" y="311.8457">is_published (BooleanField) -</text><ellipse cx="281.5" cy="325.2266" fill="#84BE84" rx="3" ry="3" style="stroke:#038048;stroke-width:1.0;"/><text fill="#000000" font-family="sans-serif" font-size="14" lengthAdjust="spacing" textLength="180" x="290.5" y="329.4551">is_available (BooleanField) -</text><ellipse cx="281.5" cy="342.8359" fill="#84BE84" rx="3" ry="3" style="stroke:#038048;stroke-width:1.0;"/><text fill="#000000" font-family="sans-serif" font-size="14" lengthAdjust="spacing" textLength="187" x="290.5" y="347.0645">is_pre_order (BooleanField) -</text><ellipse cx="281.5" cy="360.4453" fill="#84BE84" rx="3" ry="3" style="stroke:#038048;stroke-width:1.0;"/><text fill="#000000" font-family="sans-serif" font-size="14" lengthAdjust="spacing" textLength="133" x="290.5" y="364.6738">count (IntegerField) -</text><ellipse cx="281.5" cy="378.0547" fill="#84BE84" rx="3" ry="3" style="stroke:#038048;stroke-width:1.0;"/><text fill="#000000" font-family="sans-serif" font-size="14" lengthAdjust="spacing" textLength="203" x="290.5" y="382.2832">date_updated (DateTimeField) -</text><ellipse cx="281.5" cy="395.6641" fill="#84BE84" rx="3" ry="3" style="stroke:#038048;stroke-width:1.0;"/><text fill="#000000" font-family="sans-serif" font-size="14" lengthAdjust="spacing" textLength="199" x="290.5" y="399.8926">date_created (DateTimeField) -</text><line style="stroke:#181818;stroke-width:1.0;" x1="271.5" x2="498.5" y1="406.9688" y2="406.9688"/></g><!--class Brand--><g id="elem_Brand"><rect fill="#F1F1F1" height="48" id="Brand" rx="2.5" ry="2.5" style="stroke:#181818;stroke-width:0.5;" width="70" x="612" y="491"/><ellipse cx="627" cy="507" fill="#ADD1B2" rx="11" ry="11" style="stroke:#181818;stroke-width:1.0;"/><path d="M629.7656,502.875 Q629.9219,502.6563 630.1094,502.5469 Q630.2969,502.4375 630.5156,502.4375 Q630.8906,502.4375 631.125,502.6953 Q631.3594,502.9531 631.3594,503.5625 L631.3594,505.0156 Q631.3594,505.625 631.125,505.8906 Q630.8906,506.1563 630.5156,506.1563 Q630.1719,506.1563 629.9688,505.9531 Q629.7656,505.7656 629.6563,505.25 Q629.6094,504.8906 629.4219,504.7031 Q629.0938,504.3281 628.4844,504.1094 Q627.875,503.8906 627.25,503.8906 Q626.4844,503.8906 625.8516,504.2188 Q625.2188,504.5469 624.7266,505.2969 Q624.2344,506.0469 624.2344,507.0781 L624.2344,508.1719 Q624.2344,509.4063 625.125,510.2266 Q626.0156,511.0469 627.6094,511.0469 Q628.5469,511.0469 629.2031,510.7969 Q629.5938,510.6406 630.0156,510.2031 Q630.2813,509.9375 630.4297,509.8594 Q630.5781,509.7813 630.7813,509.7813 Q631.1094,509.7813 631.3672,510.0391 Q631.625,510.2969 631.625,510.6406 Q631.625,510.9844 631.2813,511.3906 Q630.7813,511.9688 629.9844,512.2969 Q628.9063,512.75 627.6094,512.75 Q626.0938,512.75 624.8906,512.125 Q623.9063,511.625 623.2188,510.5547 Q622.5313,509.4844 622.5313,508.2031 L622.5313,507.0469 Q622.5313,505.7188 623.1484,504.5703 Q623.7656,503.4219 624.8594,502.8047 Q625.9531,502.1875 627.1875,502.1875 Q627.9219,502.1875 628.5703,502.3516 Q629.2188,502.5156 629.7656,502.875 Z " fill="#000000"/><text fill="#000000" font-family="sans-serif" font-size="14" lengthAdjust="spacing" textLength="38" x="641" y="512.7285">Brand</text><line style="stroke:#181818;stroke-width:0.5;" x1="613" x2="681" y1="523" y2="523"/><line style="stroke:#181818;stroke-width:0.5;" x1="613" x2="681" y1="531" y2="531"/></g><!--class Algorithm--><g id="elem_Algorithm"><rect fill="#F1F1F1" height="48" id="Algorithm" rx="2.5" ry="2.5" style="stroke:#181818;stroke-width:0.5;" width="91" x="485.5" y="491"/><ellipse cx="500.5" cy="507" fill="#ADD1B2" rx="11" ry="11" style="stroke:#181818;stroke-width:1.0;"/><path d="M503.2656,502.875 Q503.4219,502.6563 503.6094,502.5469 Q503.7969,502.4375 504.0156,502.4375 Q504.3906,502.4375 504.625,502.6953 Q504.8594,502.9531 504.8594,503.5625 L504.8594,505.0156 Q504.8594,505.625 504.625,505.8906 Q504.3906,506.1563 504.0156,506.1563 Q503.6719,506.1563 503.4688,505.9531 Q503.2656,505.7656 503.1563,505.25 Q503.1094,504.8906 502.9219,504.7031 Q502.5938,504.3281 501.9844,504.1094 Q501.375,503.8906 500.75,503.8906 Q499.9844,503.8906 499.3516,504.2188 Q498.7188,504.5469 498.2266,505.2969 Q497.7344,506.0469 497.7344,507.0781 L497.7344,508.1719 Q497.7344,509.4063 498.625,510.2266 Q499.5156,511.0469 501.1094,511.0469 Q502.0469,511.0469 502.7031,510.7969 Q503.0938,510.6406 503.5156,510.2031 Q503.7813,509.9375 503.9297,509.8594 Q504.0781,509.7813 504.2813,509.7813 Q504.6094,509.7813 504.8672,510.0391 Q505.125,510.2969 505.125,510.6406 Q505.125,510.9844 504.7813,511.3906 Q504.2813,511.9688 503.4844,512.2969 Q502.4063,512.75 501.1094,512.75 Q499.5938,512.75 498.3906,512.125 Q497.4063,511.625 496.7188,510.5547 Q496.0313,509.4844 496.0313,508.2031 L496.0313,507.0469 Q496.0313,505.7188 496.6484,504.5703 Q497.2656,503.4219 498.3594,502.8047 Q499.4531,502.1875 500.6875,502.1875 Q501.4219,502.1875 502.0703,502.3516 Q502.7188,502.5156 503.2656,502.875 Z " fill="#000000"/><text fill="#000000" font-family="sans-serif" font-size="14" lengthAdjust="spacing" textLength="59" x="514.5" y="512.7285">Algorithm</text><line style="stroke:#181818;stroke-width:0.5;" x1="486.5" x2="575.5" y1="523" y2="523"/><line style="stroke:#181818;stroke-width:0.5;" x1="486.5" x2="575.5" y1="531" y2="531"/></g><!--class CurrencyMining--><g id="elem_CurrencyMining"><rect fill="#F1F1F1" height="48" id="CurrencyMining" rx="2.5" ry="2.5" style="stroke:#181818;stroke-width:0.5;" width="131" x="319.5" y="491"/><ellipse cx="334.5" cy="507" fill="#ADD1B2" rx="11" ry="11" style="stroke:#181818;stroke-width:1.0;"/><path d="M337.2656,502.875 Q337.4219,502.6563 337.6094,502.5469 Q337.7969,502.4375 338.0156,502.4375 Q338.3906,502.4375 338.625,502.6953 Q338.8594,502.9531 338.8594,503.5625 L338.8594,505.0156 Q338.8594,505.625 338.625,505.8906 Q338.3906,506.1563 338.0156,506.1563 Q337.6719,506.1563 337.4688,505.9531 Q337.2656,505.7656 337.1563,505.25 Q337.1094,504.8906 336.9219,504.7031 Q336.5938,504.3281 335.9844,504.1094 Q335.375,503.8906 334.75,503.8906 Q333.9844,503.8906 333.3516,504.2188 Q332.7188,504.5469 332.2266,505.2969 Q331.7344,506.0469 331.7344,507.0781 L331.7344,508.1719 Q331.7344,509.4063 332.625,510.2266 Q333.5156,511.0469 335.1094,511.0469 Q336.0469,511.0469 336.7031,510.7969 Q337.0938,510.6406 337.5156,510.2031 Q337.7813,509.9375 337.9297,509.8594 Q338.0781,509.7813 338.2813,509.7813 Q338.6094,509.7813 338.8672,510.0391 Q339.125,510.2969 339.125,510.6406 Q339.125,510.9844 338.7813,511.3906 Q338.2813,511.9688 337.4844,512.2969 Q336.4063,512.75 335.1094,512.75 Q333.5938,512.75 332.3906,512.125 Q331.4063,511.625 330.7188,510.5547 Q330.0313,509.4844 330.0313,508.2031 L330.0313,507.0469 Q330.0313,505.7188 330.6484,504.5703 Q331.2656,503.4219 332.3594,502.8047 Q333.4531,502.1875 334.6875,502.1875 Q335.4219,502.1875 336.0703,502.3516 Q336.7188,502.5156 337.2656,502.875 Z " fill="#000000"/><text fill="#000000" font-family="sans-serif" font-size="14" lengthAdjust="spacing" textLength="99" x="348.5" y="512.7285">CurrencyMining</text><line style="stroke:#181818;stroke-width:0.5;" x1="320.5" x2="449.5" y1="523" y2="523"/><line style="stroke:#181818;stroke-width:0.5;" x1="320.5" x2="449.5" y1="531" y2="531"/></g><!--class Hashrate--><g id="elem_Hashrate"><rect fill="#F1F1F1" height="48" id="Hashrate" rx="2.5" ry="2.5" style="stroke:#181818;stroke-width:0.5;" width="89" x="195.5" y="491"/><ellipse cx="210.5" cy="507" fill="#ADD1B2" rx="11" ry="11" style="stroke:#181818;stroke-width:1.0;"/><path d="M213.2656,502.875 Q213.4219,502.6563 213.6094,502.5469 Q213.7969,502.4375 214.0156,502.4375 Q214.3906,502.4375 214.625,502.6953 Q214.8594,502.9531 214.8594,503.5625 L214.8594,505.0156 Q214.8594,505.625 214.625,505.8906 Q214.3906,506.1563 214.0156,506.1563 Q213.6719,506.1563 213.4688,505.9531 Q213.2656,505.7656 213.1563,505.25 Q213.1094,504.8906 212.9219,504.7031 Q212.5938,504.3281 211.9844,504.1094 Q211.375,503.8906 210.75,503.8906 Q209.9844,503.8906 209.3516,504.2188 Q208.7188,504.5469 208.2266,505.2969 Q207.7344,506.0469 207.7344,507.0781 L207.7344,508.1719 Q207.7344,509.4063 208.625,510.2266 Q209.5156,511.0469 211.1094,511.0469 Q212.0469,511.0469 212.7031,510.7969 Q213.0938,510.6406 213.5156,510.2031 Q213.7813,509.9375 213.9297,509.8594 Q214.0781,509.7813 214.2813,509.7813 Q214.6094,509.7813 214.8672,510.0391 Q215.125,510.2969 215.125,510.6406 Q215.125,510.9844 214.7813,511.3906 Q214.2813,511.9688 213.4844,512.2969 Q212.4063,512.75 211.1094,512.75 Q209.5938,512.75 208.3906,512.125 Q207.4063,511.625 206.7188,510.5547 Q206.0313,509.4844 206.0313,508.2031 L206.0313,507.0469 Q206.0313,505.7188 206.6484,504.5703 Q207.2656,503.4219 208.3594,502.8047 Q209.4531,502.1875 210.6875,502.1875 Q211.4219,502.1875 212.0703,502.3516 Q212.7188,502.5156 213.2656,502.875 Z " fill="#000000"/><text fill="#000000" font-family="sans-serif" font-size="14" lengthAdjust="spacing" textLength="57" x="224.5" y="512.7285">Hashrate</text><line style="stroke:#181818;stroke-width:0.5;" x1="196.5" x2="283.5" y1="523" y2="523"/><line style="stroke:#181818;stroke-width:0.5;" x1="196.5" x2="283.5" y1="531" y2="531"/></g><!--class Power--><g id="elem_Power"><rect fill="#F1F1F1" height="48" id="Power" rx="2.5" ry="2.5" style="stroke:#181818;stroke-width:0.5;" width="71" x="89.5" y="491"/><ellipse cx="104.5" cy="507" fill="#ADD1B2" rx="11" ry="11" style="stroke:#181818;stroke-width:1.0;"/><path d="M107.2656,502.875 Q107.4219,502.6563 107.6094,502.5469 Q107.7969,502.4375 108.0156,502.4375 Q108.3906,502.4375 108.625,502.6953 Q108.8594,502.9531 108.8594,503.5625 L108.8594,505.0156 Q108.8594,505.625 108.625,505.8906 Q108.3906,506.1563 108.0156,506.1563 Q107.6719,506.1563 107.4688,505.9531 Q107.2656,505.7656 107.1563,505.25 Q107.1094,504.8906 106.9219,504.7031 Q106.5938,504.3281 105.9844,504.1094 Q105.375,503.8906 104.75,503.8906 Q103.9844,503.8906 103.3516,504.2188 Q102.7188,504.5469 102.2266,505.2969 Q101.7344,506.0469 101.7344,507.0781 L101.7344,508.1719 Q101.7344,509.4063 102.625,510.2266 Q103.5156,511.0469 105.1094,511.0469 Q106.0469,511.0469 106.7031,510.7969 Q107.0938,510.6406 107.5156,510.2031 Q107.7813,509.9375 107.9297,509.8594 Q108.0781,509.7813 108.2813,509.7813 Q108.6094,509.7813 108.8672,510.0391 Q109.125,510.2969 109.125,510.6406 Q109.125,510.9844 108.7813,511.3906 Q108.2813,511.9688 107.4844,512.2969 Q106.4063,512.75 105.1094,512.75 Q103.5938,512.75 102.3906,512.125 Q101.4063,511.625 100.7188,510.5547 Q100.0313,509.4844 100.0313,508.2031 L100.0313,507.0469 Q100.0313,505.7188 100.6484,504.5703 Q101.2656,503.4219 102.3594,502.8047 Q103.4531,502.1875 104.6875,502.1875 Q105.4219,502.1875 106.0703,502.3516 Q106.7188,502.5156 107.2656,502.875 Z " fill="#000000"/><text fill="#000000" font-family="sans-serif" font-size="14" lengthAdjust="spacing" textLength="39" x="118.5" y="512.7285">Power</text><line style="stroke:#181818;stroke-width:0.5;" x1="90.5" x2="159.5" y1="523" y2="523"/><line style="stroke:#181818;stroke-width:0.5;" x1="90.5" x2="159.5" y1="531" y2="531"/></g><!--class DESCRIPTION--><g id="elem_DESCRIPTION"><rect codeLine="2" fill="#FFFFFF" height="142.4375" id="DESCRIPTION" rx="2.5" ry="2.5" style="stroke:#181818;stroke-width:0.5;" width="270" x="781" y="157.5"/><ellipse cx="811.75" cy="173.5" fill="#ADD1B2" rx="11" ry="11" style="stroke:#181818;stroke-width:1.0;"/><path d="M814.5156,169.375 Q814.6719,169.1563 814.8594,169.0469 Q815.0469,168.9375 815.2656,168.9375 Q815.6406,168.9375 815.875,169.1953 Q816.1094,169.4531 816.1094,170.0625 L816.1094,171.5156 Q816.1094,172.125 815.875,172.3906 Q815.6406,172.6563 815.2656,172.6563 Q814.9219,172.6563 814.7188,172.4531 Q814.5156,172.2656 814.4063,171.75 Q814.3594,171.3906 814.1719,171.2031 Q813.8438,170.8281 813.2344,170.6094 Q812.625,170.3906 812,170.3906 Q811.2344,170.3906 810.6016,170.7188 Q809.9688,171.0469 809.4766,171.7969 Q808.9844,172.5469 808.9844,173.5781 L808.9844,174.6719 Q808.9844,175.9063 809.875,176.7266 Q810.7656,177.5469 812.3594,177.5469 Q813.2969,177.5469 813.9531,177.2969 Q814.3438,177.1406 814.7656,176.7031 Q815.0313,176.4375 815.1797,176.3594 Q815.3281,176.2813 815.5313,176.2813 Q815.8594,176.2813 816.1172,176.5391 Q816.375,176.7969 816.375,177.1406 Q816.375,177.4844 816.0313,177.8906 Q815.5313,178.4688 814.7344,178.7969 Q813.6563,179.25 812.3594,179.25 Q810.8438,179.25 809.6406,178.625 Q808.6563,178.125 807.9688,177.0547 Q807.2813,175.9844 807.2813,174.7031 L807.2813,173.5469 Q807.2813,172.2188 807.8984,171.0703 Q808.5156,169.9219 809.6094,169.3047 Q810.7031,168.6875 811.9375,168.6875 Q812.6719,168.6875 813.3203,168.8516 Q813.9688,169.0156 814.5156,169.375 Z " fill="#000000"/><text fill="#000000" font-family="sans-serif" font-size="14" lengthAdjust="spacing" textLength="203" x="829.25" y="179.2285">Explanation of the symbols used</text><line style="stroke:#181818;stroke-width:0.5;" x1="782" x2="1050" y1="189.5" y2="189.5"/><rect fill="#F24D5C" height="6" style="stroke:#C82930;stroke-width:1.0;" width="6" x="789" y="200.8047"/><text fill="#000000" font-family="sans-serif" font-size="14" lengthAdjust="spacing" textLength="135" x="801" y="208.0332">AutoField (identifiers)</text><line style="stroke:#181818;stroke-width:1.0;stroke-dasharray:1.0,2.0;" x1="782" x2="1050" y1="215.1094" y2="215.1094"/><ellipse cx="792" cy="229.4141" fill="#84BE84" rx="3" ry="3" style="stroke:#038048;stroke-width:1.0;"/><text fill="#000000" font-family="sans-serif" font-size="14" lengthAdjust="spacing" textLength="148" x="801" y="233.6426">Regular field (anything)</text><line style="stroke:#181818;stroke-width:1.0;stroke-dasharray:1.0,2.0;" x1="782" x2="1050" y1="240.7188" y2="240.7188"/><polygon fill="#FFFF44" points="792,250.0234,796,254.0234,792,258.0234,788,254.0234" style="stroke:#B38D22;stroke-width:1.0;"/><text fill="#000000" font-family="sans-serif" font-size="14" lengthAdjust="spacing" textLength="172" x="801" y="259.252">ForeignKey (ManyToMany)</text><line style="stroke:#181818;stroke-width:1.0;stroke-dasharray:1.0,2.0;" x1="782" x2="1050" y1="266.3281" y2="266.3281"/><polygon fill="#4177AF" points="792,276.6328,788,282.6328,796,282.6328" style="stroke:#1963A0;stroke-width:1.0;"/><text fill="#000000" font-family="sans-serif" font-size="14" lengthAdjust="spacing" textLength="244" x="801" y="284.8613">ForeignKey (OneToOne, OneToMany)</text><line style="stroke:#181818;stroke-width:1.0;" x1="782" x2="1050" y1="291.9375" y2="291.9375"/></g><!--link Product to Picture--><g id="link_Product_Picture"><path codeLine="37" d="M499.55,228.5 C511.16,228.5 510.78,228.5 522.39,228.5 " fill="none" id="Product-to-Picture" style="stroke:#181818;stroke-width:1.0;"/><polygon fill="#181818" points="534.39,228.5,528.39,224.5,522.39,228.5,528.39,232.5,534.39,228.5" style="stroke:#181818;stroke-width:1.0;"/></g><!--link Category to Product--><g id="link_Category_Product"><path codeLine="62" d="M235.5,228.5 C247.08,228.5 246.66,228.5 258.25,228.5 " fill="none" id="Category-to-Product" style="stroke:#181818;stroke-width:1.0;"/><polygon fill="#181818" points="270.25,228.5,264.25,224.5,258.25,228.5,264.25,232.5,270.25,228.5" style="stroke:#181818;stroke-width:1.0;"/></g><!--reverse link Product to Brand--><g id="link_Product_Brand"><path codeLine="63" d="M495.0922,423.3822 C504.5622,432.3522 506.05,432.19 517,439 C546.22,457.16 563.85,430.43 594,447 C611.94,456.86 625.94,475.56 635.03,490.7 " fill="none" id="Product-backto-Brand" style="stroke:#181818;stroke-width:1.0;"/><polygon fill="#181818" points="486.38,415.13,487.9854,422.1601,495.0922,423.3822,493.4868,416.352,486.38,415.13" style="stroke:#181818;stroke-width:1.0;"/></g><!--reverse link Product to Algorithm--><g id="link_Product_Algorithm"><path codeLine="64" d="M485.8267,425.9673 C501.2967,456.1273 509.81,472.71 519.15,490.91 " fill="none" id="Product-backto-Algorithm" style="stroke:#181818;stroke-width:1.0;"/><polygon fill="#181818" points="480.35,415.29,479.5293,422.4542,485.8267,425.9673,486.6475,418.8031,480.35,415.29" style="stroke:#181818;stroke-width:1.0;"/></g><!--reverse link Product to CurrencyMining--><g id="link_Product_CurrencyMining"><path codeLine="65" d="M385,427.29 C385,457.45 385,472.71 385,490.91 " fill="none" id="Product-backto-CurrencyMining" style="stroke:#181818;stroke-width:1.0;"/><polygon fill="#181818" points="385,415.29,381,421.29,385,427.29,389,421.29,385,415.29" style="stroke:#181818;stroke-width:1.0;"/></g><!--reverse link Product to Hashrate--><g id="link_Product_Hashrate"><path codeLine="66" d="M284.8614,425.9817 C269.4914,456.1417 261.04,472.71 251.77,490.91 " fill="none" id="Product-backto-Hashrate" style="stroke:#181818;stroke-width:1.0;"/><polygon fill="#181818" points="290.31,415.29,284.0218,418.8196,284.8614,425.9817,291.1496,422.4521,290.31,415.29" style="stroke:#181818;stroke-width:1.0;"/></g><!--reverse link Product to Power--><g id="link_Product_Power"><path codeLine="67" d="M274.9014,423.3564 C265.4414,432.3464 263.94,432.18 253,439 C224.55,456.73 207.36,430.81 178,447 C160.08,456.88 146.08,475.58 136.98,490.72 " fill="none" id="Product-backto-Power" style="stroke:#181818;stroke-width:1.0;"/><polygon fill="#181818" points="283.6,415.09,276.4952,416.3237,274.9014,423.3564,282.0062,422.1228,283.6,415.09" style="stroke:#181818;stroke-width:1.0;"/></g><!--SRC=[fPHFRzCm5C3l-HHFwoK3qWD2S458MxkA2erL8_VAJLuRIuuTsSvOXQWchXouJXpv10Cqs8Lz1lSRuQJ9jgPUofzBdEZzxFZzthC10296b8ATWzEC4Kuq5Hp457I2eERfH305kS9u1uY2_i6Rtl5m50wFNaDdC1Z0Eyyk007ivLeCAB8OV1eZrtHAKQhTCjhjbiD3ECPPpeY4wGeaVAuJocThL0S6GYATyLSu1__GCg4edclGOWqwuXWA-tW4vTij7GJUUy_pglmoAU8yqghR8nfdGixX-UCkc2_csdmp5ykpvSSNPOwRN0UVJP_4JwjapMTBVp2NvhkvNfwPg-Kdi9_L8kQY_lFA2xLvthZPXQ0omKcAuFSI8Xi1giPPFc5K9MXdxWl1aF1D9YMKtnSMCaO9_f3RtUFw-lS86T58vnAt-QYnXevpyzDE-LhaRdvOBR_CbRdyMoMB-ZVWtvRsJiefcLbXmsBu1sELaf5GLDCJTAdPehKqjs7YGS1mgeCxYbOlBiTLUjiSLrZ3ySs4_-kkJDB8HleOMQ6i4LI9a7eSeueapSfRm0_nL3UezlW2elhGEEguW8aaF7Q72BFJg4vITpZAfKGUpSSfvVRES4C9KOcq6t17C_6sw09dV_tPiICdX38oOTZ2P1B7LR-vcKZaNBlFfzLhTp_EisAm6-dR8QGfkg18OWlKwDUggpRwjRxYN6XWTvgcWdVtYwAr4djrxLgfNbN2mxA2hUZBgf2jqAYef-Vz1W00]--></g></svg>